<svg width="1435" height="1268" viewBox="0 0 1435 1268" fill="none" xmlns="http://www.w3.org/2000/svg">
  <path d="M306.694 917.537C307.199 918.21 307.872 918.547 308.713 918.547C310.227 918.547 311.909 918.547 313.424 918.547C683.049 918.547 1052.84 918.547 1422.47 918.547C1424.65 918.547 1426.84 918.547 1429.03 918.547C1427.68 919.556 1426 919.388 1424.49 919.388C1421.79 919.388 1419.1 919.388 1416.41 919.388C1388.82 919.388 1361.23 919.388 1333.64 919.388C1331.95 919.388 1330.1 919.388 1328.42 919.556C1326.57 920.902 1324.55 920.734 1322.53 920.734C1225.62 920.734 1128.72 921.407 1031.81 920.397C980.666 919.893 929.689 919.388 878.544 920.061C798.125 921.239 717.706 920.061 637.287 920.734C529.781 920.734 422.275 920.734 314.77 920.734C311.909 920.734 309.049 921.239 306.358 920.061C305.18 919.052 304.843 918.042 306.694 917.369V917.537Z" fill="black"/>
  <path d="M1430.88 918.547C1431.72 917.369 1432.9 917.706 1433.91 917.706C1433.07 918.547 1431.89 918.547 1430.88 918.547Z" fill="black"/>
  <path d="M269.008 920.397C260.428 920.397 252.016 920.397 243.436 920.397C209.619 920.397 175.971 920.397 142.155 920.397C123.312 920.397 104.637 920.397 85.7939 920.397C83.4386 920.397 81.0832 920.397 78.7278 920.397C78.3914 920.397 78.3914 920.061 78.3914 919.892C78.3914 919.724 78.5596 919.556 78.7278 919.556C80.242 919.556 81.9244 919.388 83.4386 919.388C143.669 919.388 204.067 919.388 264.297 919.388C265.812 919.388 267.494 919.388 269.008 919.388C269.345 919.388 269.345 919.724 269.345 919.892C269.345 920.061 269.176 920.229 269.008 920.229V920.397Z" fill="black"/>
  <path d="M78.5596 919.725C78.5596 919.893 78.5596 920.23 78.5596 920.398C70.3158 920.398 62.072 920.398 53.9965 920.398C36.6677 920.398 19.3389 920.398 2.01006 920.398C1.67358 920.23 1.67358 920.061 1.67358 919.893C1.67358 919.725 1.84182 919.557 2.01006 919.557C3.86071 919.557 5.71136 919.557 7.73025 919.557C29.7698 919.557 51.6411 919.557 73.6806 919.557C75.363 919.557 77.0454 919.557 78.8961 919.557L78.5596 919.725Z" fill="black"/>
  <path d="M1.84186 919.725C1.84186 920.061 1.84186 920.229 1.84186 920.566C1.00065 920.566 0.327692 920.566 -0.00878906 919.725C0.664174 919.725 1.16889 919.725 1.84186 919.725Z" fill="black"/>
  <path d="M1427.01 916.696C1427.68 915.687 1428.86 915.855 1429.87 915.855C1429.2 916.865 1428.02 916.696 1427.01 916.696Z" fill="black"/>
  <path d="M1432.73 915.687C1433.23 915.014 1433.91 914.846 1434.58 914.846C1434.08 915.687 1433.4 915.687 1432.73 915.687Z" fill="black"/>
  <path d="M859.564 4.49481C859.877 4.15832 860.191 3.82183 860.504 3.48535C860.974 4.15831 861.601 4.49481 862.384 4.49481C863.795 4.49481 865.361 4.49481 866.772 4.49481C1037.88 4.49481 1208.82 4.49481 1379.93 4.49481C1384.94 4.49481 1389.8 5.336 1394.66 6.51369C1400.61 8.1961 1405.78 11.3927 1410.32 15.7669C1413.93 19.1317 1416.91 23.0013 1419.1 27.3755C1421.92 32.9275 1423.8 38.8159 1423.96 45.3773C1423.96 47.5644 1423.96 49.7516 1423.96 51.9387C1423.96 324.32 1423.96 596.702 1423.96 868.916C1423.96 870.43 1423.96 872.112 1423.96 873.626C1423.96 884.899 1419.88 894.32 1412.83 902.564C1407.82 908.452 1401.55 911.985 1394.81 914.677C1394.34 915.182 1393.56 915.014 1393.09 915.518C1392.15 915.518 1391.37 915.518 1390.43 915.518C1389.64 916.36 1388.54 915.518 1387.76 916.36C1042.42 916.36 696.921 916.36 351.58 916.36C349.229 916.36 346.879 916.36 344.529 916.36H344.372C343.902 914.677 344.842 913.331 345.625 911.985C353.773 897.18 362.391 882.543 370.539 867.57C371.636 865.551 372.889 863.532 375.396 863.027C378.687 862.523 381.82 862.691 385.111 862.691C712.277 862.691 1039.44 862.691 1366.45 862.691C1377.89 862.691 1376.64 863.532 1376.64 851.755C1376.64 590.646 1376.64 329.536 1376.64 68.258C1376.64 56.4812 1377.42 57.4906 1366.61 57.4906C1191.43 57.4906 1016.25 57.4906 841.075 57.4906C838.098 57.4906 835.121 57.6589 832.3 57.1541C829.323 56.3129 830.107 54.4623 831.203 52.6116C834.337 46.7232 837.628 41.003 840.918 35.2828C845.932 26.3661 850.946 17.6176 855.96 8.70082C856.9 7.01842 857.684 4.99952 859.564 3.99008V4.49481Z" fill="black"/>
  <path d="M373.83 864.878C368.189 874.972 362.391 884.898 356.75 894.993C352.677 902.227 348.603 909.461 344.529 916.696C342.962 916.696 341.238 916.696 339.671 916.696C248.165 916.696 156.502 916.696 64.9963 916.696C58.4153 916.696 52.3045 914.845 46.3503 912.153C43.5299 910.807 41.0229 908.788 38.5159 906.938C35.3821 904.414 33.0318 901.386 30.6814 898.189C28.3311 894.993 26.9209 891.123 25.5107 887.254C24.4139 884.394 23.9438 881.197 23.4738 878.169C22.6903 873.121 22.847 868.074 22.847 863.195C22.847 592.832 22.847 322.638 22.847 52.2748C22.847 46.7228 23.6305 41.3391 25.0407 36.1237C26.9209 29.7305 29.898 24.0104 34.2853 19.1314C38.2025 14.7571 42.5898 11.2241 47.7605 8.70045C51.2077 7.01804 54.6548 6.34506 58.2586 5.50386C63.4294 4.32618 68.4434 4.66266 73.6141 4.66266C333.561 4.66266 593.507 4.66266 853.61 4.66266C855.647 4.66266 857.684 4.66266 859.721 4.66266C857.527 9.70988 854.55 14.4206 851.886 19.2996C846.402 29.0576 840.918 38.8155 835.278 48.5735C833.711 51.2654 832.144 53.9572 830.734 56.4808C829.48 57.995 827.913 57.995 826.19 57.995C823.996 57.995 821.802 57.995 819.609 57.995C573.294 57.995 326.98 57.995 80.8218 57.995C70.167 57.995 71.1071 57.322 71.1071 68.5941C71.1071 329.872 71.1071 591.15 71.1071 852.428C71.1071 864.205 70.3237 863.027 81.1352 863.027C175.932 863.027 270.728 863.027 365.525 863.027C368.345 863.027 371.479 862.186 373.986 864.709L373.83 864.878Z" fill="black"/>
  <path d="M1394.03 2.81287C1395.28 3.31759 1396.54 3.8223 1397.63 4.32702C1414.71 11.3931 1424.58 24.6842 1426.93 44.3683C1427.4 47.9014 1427.25 51.2662 1427.25 54.7992C1427.25 59.8465 1427.25 64.8937 1427.4 69.9409C1427.4 71.2868 1427.25 72.801 1427.25 74.1469C1427.25 112.506 1427.25 150.865 1427.25 189.224C1427.25 190.738 1427.25 192.42 1427.4 193.934C1427.4 195.28 1427.25 196.794 1427.25 198.14C1427.25 232.63 1427.25 266.951 1427.25 301.44C1427.25 302.786 1427.25 304.3 1427.4 305.646C1427.4 307.16 1427.25 308.843 1427.25 310.357C1427.25 357.128 1427.25 403.731 1427.25 450.502C1427.25 452.016 1427.25 453.698 1427.4 455.212C1427.4 456.558 1427.25 458.072 1427.25 459.418C1427.25 494.076 1427.25 528.902 1427.25 563.559C1427.25 564.905 1427.25 566.419 1427.4 567.765C1427.4 569.111 1427.25 570.625 1427.25 571.971C1427.25 618.742 1427.25 665.345 1427.25 712.116C1427.25 713.462 1427.25 714.976 1427.4 716.322C1427.4 717.668 1427.25 719.182 1427.25 720.528C1427.25 754.681 1427.25 788.665 1427.25 822.818C1427.25 824.164 1427.25 825.678 1427.4 827.024C1427.4 828.707 1427.25 830.557 1427.25 832.24C1427.25 845.026 1427.25 857.812 1427.25 870.43C1427.25 876.319 1426.62 882.039 1424.9 887.591C1419.88 902.564 1410.48 912.491 1396.54 917.538C1395.91 917.706 1395.13 917.706 1394.34 917.874C1393.4 918.547 1392.31 917.874 1391.52 918.715C1391.05 918.715 1390.58 918.715 1389.96 918.884C1388.54 919.557 1386.98 919.22 1385.57 919.22C1380.4 919.22 1375.23 919.22 1370.21 919.22C1254.73 920.398 1139.25 920.23 1023.77 919.893C976.611 919.893 929.447 919.557 882.284 919.725C705.853 920.398 529.265 919.725 352.833 920.061C350.013 920.061 346.879 921.239 344.529 918.379C344.529 917.706 344.529 917.201 344.999 916.528C346.409 915.351 347.976 915.351 349.543 915.351C351.423 915.351 353.303 915.351 355.34 915.351C696.295 915.351 1037.25 915.351 1378.2 915.351C1381.02 915.351 1383.84 915.351 1386.51 915.351C1387.76 915.351 1389.01 915.519 1390.27 915.182C1391.21 915.014 1392.15 914.846 1393.09 914.509C1394.03 914.173 1394.97 913.668 1395.91 913.164C1408.44 907.612 1417.38 898.527 1421.45 884.394C1422.55 880.693 1422.86 876.992 1422.86 873.122C1422.86 598.049 1422.86 323.143 1422.86 48.0696C1422.86 24.8524 1405.78 7.01888 1382.75 6.17768C1380.55 6.17768 1378.36 6.17768 1376.17 6.17768C1207.26 6.17768 1038.5 6.17768 869.592 6.17768C866.458 6.17768 863.011 7.35534 860.504 4.15877C860.504 2.98109 860.974 2.47638 861.758 1.97166C863.638 1.2987 865.518 1.46693 867.399 1.46693C1041.17 1.46693 1214.93 1.46693 1388.7 1.46693C1389.8 1.46693 1390.9 1.46692 1391.99 1.63516C1392.78 1.8034 1393.56 2.30813 1394.03 2.98109V2.81287Z" fill="white"/>
  <path d="M404.54 1.46634C405.951 1.46634 407.517 1.63457 408.928 1.63457C485.078 1.63457 561.229 1.63457 637.38 1.63457C638.79 1.63457 640.357 1.63457 641.767 1.63457C642.55 1.12985 643.49 1.29809 644.431 1.29809C716.507 1.29809 788.741 1.29809 860.818 1.29809C861.444 1.46633 861.758 1.97106 861.444 2.64402C861.131 2.9805 860.818 3.31699 860.504 3.48523C860.191 4.49467 859.564 4.9994 858.624 5.33588C855.49 6.34533 852.2 5.84059 848.909 5.84059C589.59 5.84059 330.427 5.84059 71.107 5.84059C67.5031 5.84059 63.7426 5.84059 60.1388 6.34531C38.5157 9.87837 24.7271 26.5342 24.1004 50.0879C24.1004 51.4338 24.1004 52.948 24.1004 54.2939C24.1004 324.993 24.1004 595.524 24.1004 866.224C24.1004 876.823 25.6673 887.086 31.3081 896.002C38.9858 908.116 49.954 913.836 63.2725 915.014C65.3095 915.182 67.3464 915.014 69.3834 915.014C158.226 915.014 246.912 915.014 335.754 915.014C338.574 915.014 341.395 914.509 344.059 915.855C344.215 916.023 344.529 916.359 344.685 916.528C344.685 916.864 344.685 917.032 344.685 917.369C344.058 917.874 343.902 918.547 343.902 919.22C342.335 921.07 340.141 920.565 338.261 920.565C328.703 920.565 319.145 920.565 309.43 920.565C250.359 918.883 191.444 919.892 132.372 919.724C108.712 919.724 85.2089 919.724 61.549 919.724C60.7655 919.724 59.8254 919.724 59.0419 919.22C57.1617 918.715 55.2814 918.378 53.4012 917.874C40.2393 914.004 30.5246 905.424 24.4138 892.301C23.9437 891.123 23.317 890.114 22.8469 888.936C22.8469 888.431 22.8469 887.927 22.6902 887.59C20.8099 881.87 20.1832 875.982 20.1832 869.925C20.1832 670.055 20.1832 470.353 20.1832 270.483C20.1832 268.464 20.1832 266.446 20.0265 264.427C19.3997 262.912 19.7131 261.398 19.7131 259.716C19.7131 189.559 19.7131 119.571 19.7131 49.415C19.7131 47.9008 19.3997 46.2184 20.0265 44.7042C20.6532 41.6759 20.9666 38.4793 21.9068 35.451C27.3909 16.9445 38.9858 5.67236 56.8483 1.80282C59.0419 1.2981 61.2356 1.12986 63.4292 0.961615C64.9961 0.288652 66.563 0.625139 68.2866 0.625139C99.3109 0.625139 130.335 0.625139 161.36 0.625139C201.002 0.625139 240.801 0.625139 280.443 0.625139C320.242 0.625139 360.197 0.625139 399.996 0.625139C401.563 0.625139 403.287 0.288652 404.854 0.961615L404.54 1.46634Z" fill="white"/>
  <path d="M20.0262 45.209C20.0262 46.3867 20.0262 47.7326 20.0262 48.9103C20.0262 119.067 20.0262 189.391 20.0262 259.548C20.0262 261.23 20.0262 263.081 19.8695 264.763C19.5563 264.763 19.3996 264.763 19.0863 264.763C19.0863 251.472 19.0863 238.181 19.0863 225.058C19.0863 180.979 19.0863 136.732 19.0863 92.6529C19.0863 78.3524 19.0863 64.0519 19.0863 49.7515C19.0863 48.2373 18.6164 46.5549 19.8695 45.3772L20.0262 45.209Z" fill="white"/>
  <path d="M161.203 1.46649C159.949 1.46649 158.539 1.46649 157.286 1.46649C127.358 1.46649 97.2739 1.46649 67.3464 1.46649C66.0929 1.46649 64.6827 1.46648 63.4292 1.29823C64.3693 0.12055 65.7795 0.625272 66.8763 0.457031C91.3198 0.457031 115.606 0.457031 140.05 0.457031C147.101 0.457031 154.152 0.457031 161.203 0.457031C161.516 0.625272 161.516 0.793518 161.516 0.961759C161.516 1.13 161.36 1.29823 161.203 1.29823V1.46649Z" fill="white"/>
  <path d="M1389.95 2.47609C1389.8 2.30785 1389.64 1.97137 1389.48 1.63489C1390.58 1.63489 1391.68 1.29842 1392.46 2.30786C1391.68 2.30786 1390.89 2.30786 1390.11 2.30786L1389.95 2.47609Z" fill="white"/>
  <path d="M1125.15 1.4662C1123.74 1.4662 1122.17 1.4662 1120.76 1.4662C1076.11 1.4662 1031.29 1.4662 986.639 1.4662C985.228 1.4662 983.662 1.4662 982.251 1.4662C981.938 1.29796 981.938 1.12972 981.938 0.961476C981.938 0.793236 982.095 0.625 982.251 0.625C1003.09 0.625 1023.93 0.625 1044.93 0.625C1068.12 0.625 1091.31 0.625 1114.65 0.625C1118.26 0.625 1121.7 0.625 1125.31 0.625C1125.31 0.961481 1125.31 1.12972 1125.31 1.4662H1125.15Z" fill="white"/>
  <path d="M161.203 1.4662C161.203 1.12972 161.203 0.961481 161.203 0.625C180.632 0.625 200.062 0.625 219.335 0.625C239.547 0.625 259.917 0.625 280.13 0.625C280.443 0.793241 280.443 0.961487 280.443 1.12973C280.443 1.29797 280.286 1.4662 280.13 1.4662C278.72 1.4662 277.153 1.4662 275.742 1.4662C238.921 1.4662 202.255 1.4662 165.434 1.4662C164.023 1.4662 162.457 1.46619 161.046 1.29795L161.203 1.4662Z" fill="white"/>
  <path d="M280.286 1.4662C280.286 1.12972 280.286 0.961481 280.286 0.625C303.163 0.625 326.196 0.625 349.073 0.625C367.562 0.625 386.051 0.625 404.697 0.625C404.697 0.961481 404.697 1.12972 404.697 1.4662C403.287 1.4662 401.72 1.4662 400.31 1.4662C361.764 1.4662 323.219 1.4662 284.674 1.4662C283.263 1.4662 281.697 1.46619 280.286 1.29795V1.4662Z" fill="white"/>
  <path d="M866.772 1.4667C865.048 1.4667 863.168 1.63493 861.444 1.80317C859.721 1.80317 857.997 1.80317 856.117 1.80317C786.39 1.80317 716.821 1.80317 647.094 1.80317C645.371 1.80317 643.647 1.80316 641.767 1.63492C642.55 0.625477 643.647 0.793718 644.587 0.793718C647.564 0.793718 650.385 0.793718 653.362 0.793718C669.501 0.793718 685.64 0.793718 701.622 0.793718C724.185 0.793718 746.905 0.793718 769.468 0.793718C789.524 0.793718 809.424 0.793718 829.48 0.793718C841.858 0.793718 854.237 0.793718 866.458 0.793718C866.772 0.961959 866.772 1.1302 866.772 1.29845C866.772 1.46669 866.615 1.63492 866.458 1.63492L866.772 1.4667Z" fill="white"/>
  <path d="M866.772 1.4662C866.772 1.12972 866.772 0.961481 866.772 0.625C874.449 0.625 882.127 0.625 889.648 0.625C916.755 0.625 943.706 0.625 970.813 0.625C974.574 0.625 978.491 0.625 982.251 0.625C982.251 0.961481 982.251 1.12972 982.251 1.4662C980.998 1.4662 979.588 1.4662 978.334 1.4662C942.452 1.4662 906.571 1.4662 870.689 1.4662C869.435 1.4662 868.025 1.4662 866.772 1.4662Z" fill="white"/>
  <path d="M714.005 22.3284C717.706 21.6554 721.912 25.3567 722.08 30.4039C722.08 34.9464 718.547 38.3113 714.005 38.4795C709.799 38.4795 705.593 34.2735 705.593 30.4039C705.593 25.8614 709.294 22.1602 714.173 22.1602L714.005 22.3284Z" fill="white"/>
  <path d="M74.017 884.394C78.896 887.086 80.7466 891.124 79.4007 896.171C78.223 900.713 73.8488 903.742 68.9698 903.573C62.5766 903.237 57.8659 896.339 60.053 890.282C60.8942 887.759 62.2402 885.404 65.1003 884.562C66.2779 884.058 66.4462 884.899 66.7827 885.74C66.7827 886.245 66.7827 886.581 66.6144 887.086C66.4462 887.759 66.1097 888.264 65.7732 888.768C64.5955 890.787 63.2496 892.806 64.0908 895.33C65.1002 898.358 68.9698 900.04 71.8299 898.694C74.8582 897.349 76.2041 893.816 74.69 890.787C73.8488 889.105 71.9981 887.927 72.1664 885.908C72.3346 884.899 72.6711 883.889 74.017 884.394Z" fill="white"/>
  <path d="M66.4462 886.581C66.4462 885.74 66.1098 884.899 65.2686 884.394C66.6145 883.553 67.4557 882.543 67.4557 880.693C67.4557 879.01 69.8111 878.001 71.157 879.01C71.8299 879.515 71.9982 880.356 71.83 881.029C71.6617 882.711 72.8394 883.384 74.0171 884.226C73.1759 884.73 73.0076 885.403 72.8394 886.245C72.5029 888.263 73.6806 890.787 70.6523 891.796C67.6239 892.806 66.1098 890.955 66.278 886.413L66.4462 886.581Z" fill="white"/>
  <path d="M733.016 26.1975C735.54 26.1975 737.559 28.2164 737.559 30.5718C737.559 32.5907 735.371 34.6096 733.184 34.6096C730.829 34.6096 728.474 32.5907 728.474 30.2353C728.474 27.7117 730.493 26.0293 733.184 26.0293L733.016 26.1975Z" fill="white"/>
  <path d="M66.4462 886.581C66.4462 887.086 65.9415 887.422 65.4368 887.422C65.7732 887.086 66.1097 886.749 66.4462 886.581Z" fill="white"/>
  <path d="M941.13 1208.26H528.772L575.038 919.556L904.621 919.22L941.13 1208.26Z" fill="black"/>
  <path d="M464.167 1208.26H1005.73C1038.54 1208.26 1065.29 1235.01 1065.29 1267.81H404.442C404.442 1235.01 431.192 1208.26 463.999 1208.26H464.167Z" fill="black"/>
  <path d="M422.948 1249.48H1046.95C1057.05 1249.48 1065.46 1257.72 1065.46 1267.98H404.61C404.61 1257.89 412.854 1249.48 423.117 1249.48H422.948Z" fill="#BEBEBE"/>
</svg>
