<svg width="93" height="71" viewBox="0 0 93 71" fill="none" xmlns="http://www.w3.org/2000/svg">
    <path d="M85.0277 57.9548L85.0555 58.0105L85.09 58.0623L91.1894 67.2113C91.3303 67.4226 91.3957 67.7104 91.3671 68.1102C91.3436 68.4398 91.2601 68.7905 91.1515 69.1448C90.9462 69.3114 90.6643 69.4894 90.3444 69.637C89.9231 69.8315 89.5376 69.9262 89.2768 69.9262H3.88529C3.6307 69.9262 3.25943 69.8347 2.87266 69.6264C2.49048 69.4206 2.16914 69.1415 1.97261 68.8467C1.5866 68.2677 1.5866 67.4854 1.97261 66.9064L8.072 57.7573C8.52829 57.0729 9.15271 56.6777 9.98468 56.6777H83.1774C83.6123 56.6777 83.9483 56.7836 84.2238 56.9672C84.5055 57.1551 84.782 57.4635 85.0277 57.9548Z" stroke="#794945" stroke-width="2"/>
    <path d="M13.0346 1.78418H80.1279C80.8155 1.78418 81.3109 2.00903 81.6318 2.32995C81.9527 2.65087 82.1776 3.14621 82.1776 3.83388V46.5296C82.1776 47.2173 81.9527 47.7126 81.6318 48.0335C81.3109 48.3545 80.8155 48.5793 80.1279 48.5793H13.0346C12.3469 48.5793 11.8516 48.3545 11.5306 48.0335C11.2097 47.7126 10.9849 47.2173 10.9849 46.5296V3.83388C10.9849 3.14621 11.2097 2.65087 11.5306 2.32995C11.8516 2.00904 12.3469 1.78418 13.0346 1.78418ZM34.1746 37.1727C35.785 35.5623 35.785 33.0993 34.1746 31.4889L27.8674 25.1817L34.1746 18.8746C35.785 17.2641 35.785 14.8012 34.1746 13.1908C32.5642 11.5804 30.1012 11.5804 28.4908 13.1908L19.3418 22.3398C17.7314 23.9503 17.7314 26.4132 19.3418 28.0236L28.4908 37.1727C28.8548 37.5367 29.2586 37.8495 29.7448 38.0656C30.2354 38.2837 30.7586 38.3805 31.3327 38.3805C31.9069 38.3805 32.43 38.2837 32.9206 38.0656C33.4069 37.8495 33.8106 37.5367 34.1746 37.1727ZM44.121 39.0476L56.3198 14.6501C56.7702 13.7492 56.7417 12.7025 56.4503 11.8281C56.1626 10.9651 55.5693 10.1216 54.6879 9.6667C52.6874 8.49035 50.1938 9.26003 49.3292 11.3503L37.1637 35.6814C36.0148 37.6393 36.7284 40.068 38.7188 40.9801C39.2832 41.4362 39.908 41.433 40.3828 41.4306C40.4166 41.4304 40.4496 41.4302 40.4818 41.4302C41.2667 41.4302 41.9982 41.2311 42.6376 40.8048C43.2708 40.3827 43.7567 39.7762 44.121 39.0476ZM64.6716 37.1727L73.8207 28.0236C75.4311 26.4132 75.4311 23.9503 73.8207 22.3399L64.6716 13.1908C63.0612 11.5804 60.5982 11.5804 58.9878 13.1908C57.3774 14.8012 57.3774 17.2641 58.9878 18.8746L65.295 25.1817L58.9878 31.4889C57.3774 33.0993 57.3774 35.5623 58.9878 37.1727C59.3518 37.5367 59.7555 37.8495 60.2418 38.0656C60.7324 38.2837 61.2556 38.3805 61.8297 38.3805C62.4038 38.3805 62.927 38.2837 63.4176 38.0656C63.9038 37.8495 64.3076 37.5367 64.6716 37.1727Z" stroke="#794945" stroke-width="2"/>
</svg>
