<svg width="334" height="48" viewBox="0 0 334 48" fill="none" xmlns="http://www.w3.org/2000/svg">
    <path d="M167.867 15.6718C168.07 11.7575 169.474 8.55885 171.667 6.06344V2.73828H168.752C162.861 2.73828 157.873 4.99618 154.973 10.098H154.804V3.29967H139.692V44.7592H154.807V28.0224C154.807 20.9187 156.886 15.5022 165.273 15.5022C166.186 15.5084 167.04 15.5608 167.867 15.6718Z" fill="#717172"/>
    <path d="M282.301 15.5209C283.556 11.8564 285.592 8.59293 288.239 5.97414V2.73535H285.33C279.435 2.73535 274.454 4.99325 271.539 10.092H271.375V3.29983H256.255V44.7594H271.375V28.0226C271.375 20.9188 273.461 15.5023 281.847 15.5023L282.301 15.5209Z" fill="#717172"/>
    <path d="M198.561 13.9661C196.229 12.7539 192.984 11.9457 190.403 11.9457C188.669 11.9457 185.674 12.6675 185.674 14.7743C185.674 17.6059 190.403 18.0069 192.494 18.4202C199.539 19.7898 204.869 23.0255 204.869 30.6937C204.869 41.6007 194.65 46.1412 184.758 46.1412C178.69 46.1412 172.722 44.4416 167.564 41.3694L173.046 31.0978C176.115 33.2076 181.266 35.302 185.005 35.302C186.917 35.302 189.739 34.4168 189.739 32.1527C189.739 28.9201 185.005 28.7504 180.264 27.5413C175.535 26.329 170.806 24.0711 170.806 16.6343C170.806 6.44906 180.264 1.93018 189.585 1.93018C194.403 1.93018 199.224 2.65505 203.617 4.59524L198.561 13.9661Z" fill="#717172"/>
    <path d="M333.566 44.7593H318.452V40.1479H318.285C315.627 44.2688 310.383 46.1257 305.407 46.1257C292.773 46.1257 283.893 35.8603 283.893 23.9786C283.893 12.1092 292.616 1.9209 305.238 1.9209C310.136 1.9209 315.293 3.69761 318.449 7.33122V3.2997H333.56L333.566 44.7593ZM299.51 24.068C299.51 29.318 303.088 33.3587 309.226 33.3587C315.371 33.3587 318.933 29.3241 318.933 24.068C318.933 18.9754 315.371 14.6941 309.226 14.6941C303.088 14.6971 299.51 18.9754 299.51 24.068Z" fill="#717172"/>
    <path d="M253.87 26.4987H222.047C222.047 32.4735 225.295 35.703 231.522 35.703C234.761 35.703 237.084 34.6574 238.75 31.9059H253.29C250.881 41.6871 241.325 46.1319 231.609 46.1319C217.497 46.1319 206.948 38.3681 206.948 24.0711C206.948 10.2523 216.655 1.93018 230.526 1.93018C245.31 1.93018 253.876 10.823 253.876 24.9595L253.87 26.4987ZM239.829 18.0069C239.08 14.0463 235.341 11.4615 231.276 11.4615C226.868 11.4615 223.228 13.7163 222.3 18.0069H239.829Z" fill="#717172"/>
    <path d="M91.6163 23.3463C91.6008 22.9885 91.5762 22.6399 91.5484 22.2852V22.279V22.2729C91.2091 18.4264 89.9383 14.8267 87.7822 11.5756C86.8198 10.1259 85.7186 8.80876 84.4879 7.62738C82.6896 5.89694 80.6075 4.4657 78.2601 3.33367C74.7283 1.64642 70.8263 0.795077 66.6622 0.795077C66.255 0.795077 65.8293 0.801246 65.4006 0.816669C62.4764 0.949305 59.6479 1.50453 56.989 2.48233C54.3085 3.45088 51.9735 4.73098 50.0642 6.26709C49.6755 6.57554 49.2529 6.95494 48.7995 7.37136L48.4725 7.69215L48.0253 8.16717H48.0284H48.0314L47.8217 8.37384L47.7199 8.48488L47.1863 9.04627C46.7914 9.49045 46.4151 9.93463 46.0635 10.3696L46.0604 10.3634L46.0481 10.351C45.317 11.2394 44.6415 12.1586 44.1449 12.9853C43.8087 13.5158 43.4786 14.0618 43.164 14.6077L38.8055 23.4203L38.8117 23.4265L38.5834 23.8738L38.1022 24.8485C37.146 26.7825 36.122 28.7103 34.9776 30.302C32.4267 33.0997 29.5426 34.4692 25.8349 34.4692C25.5758 34.4692 25.3106 34.4569 25.0391 34.4415C22.8059 34.352 20.8904 33.8245 19.1908 32.819C19.0088 32.711 18.833 32.6 18.6633 32.4858C17.2753 31.5636 16.2111 30.3791 15.4153 28.9016C14.5177 27.2267 14.1198 25.5147 14.1753 23.701C14.1784 23.6517 14.1815 23.6085 14.1815 23.5684C14.3018 20.6812 15.403 18.4357 17.6208 16.4955C18.1606 16.0297 18.725 15.6349 19.3142 15.2833C19.3975 15.2339 19.4808 15.1876 19.564 15.1444C21.2112 14.2468 23.0866 13.7996 25.2365 13.7996L25.9059 13.8181C29.3205 13.9476 31.9547 15.0149 34.0553 17.097L40.6439 5.26769C39.0677 4.21277 37.2879 3.30591 35.3261 2.5687C35.2521 2.54094 35.175 2.51009 35.0979 2.48542C34.8635 2.40213 34.6321 2.31576 34.3915 2.23865C32.3064 1.54154 30.1194 1.11279 27.8677 0.918459C27.8122 0.909205 27.7505 0.903036 27.6949 0.896867C27.3495 0.875275 26.9978 0.832091 26.6524 0.816669C26.276 0.801246 25.8966 0.795077 25.5265 0.791992H25.3137C21.1711 0.807415 17.3216 1.65567 13.8021 3.33675C9.86001 5.23684 6.66441 8.00369 4.29547 11.5694C1.93269 15.1352 0.643347 19.0927 0.458274 23.3401C0.442851 23.7041 0.433597 24.065 0.433597 24.4197C0.430512 30.3606 2.59587 35.5858 6.90192 39.9721C11.3961 44.5742 17.2414 47.0542 24.2587 47.3473C24.7091 47.3658 25.1533 47.3781 25.5974 47.3781C29.5673 47.3781 33.241 46.6717 36.5353 45.259C37.3589 44.9074 38.1578 44.494 38.9752 44.0344C39.4194 43.7784 39.8389 43.507 40.2553 43.217L40.5637 43.0104L41.0819 42.6556C41.705 42.2084 42.288 41.7241 42.8555 41.209L43.053 41.0208C43.3861 40.7031 43.7192 40.3823 44.0338 40.0523L45.2152 38.7167L45.6656 38.1522L45.8753 37.8437L46.0851 37.5414C47.8402 34.5926 53.5528 23.8614 53.5528 23.8614V23.8398L53.8921 23.1859L54.1759 22.6739C55.018 21.1408 55.6256 20.052 56.4307 18.9076L56.4523 18.8737C58.3308 16.15 61.5603 14.2098 65.3667 13.8829C71.7517 13.3338 77.3471 17.5288 77.8622 23.2538C78.3743 28.9787 73.6117 34.0651 67.2267 34.6173C65.8972 34.7314 64.6048 34.642 63.3864 34.3736L63.3555 34.3859C58.6701 33.4112 55.6873 29.9935 54.216 28.4667L48.0715 39.7654C48.0715 39.7654 49.9809 41.6902 51.2887 42.6526C52.5997 43.6119 54.2931 44.5557 55.6441 45.1418C58.923 46.5422 62.4888 47.3812 66.4278 47.3812C66.8843 47.3812 66.7917 47.3812 67.2668 47.3627C74.278 47.0696 80.5273 44.383 85.0338 39.7808C89.3028 35.41 91.6194 30.4192 91.6409 24.5123V24.3364C91.6379 24.0095 91.6286 23.6794 91.6163 23.3463Z" fill="#717172"/>
    <path d="M115.121 46.1597C111.934 46.1597 109.044 45.7896 106.45 45.0493C103.856 44.309 101.641 43.14 99.8057 41.536C97.9643 39.932 96.5454 37.89 95.546 35.4131C94.5466 32.9362 94.0469 29.9504 94.0469 26.471V3.29053H108.628V26.2859C108.628 28.8924 109.251 30.7801 110.494 31.9584C111.74 33.1398 113.322 33.729 115.241 33.729C117.203 33.729 118.794 33.1799 120.022 32.0787C121.243 30.9775 121.86 29.1515 121.86 26.5851V3.29053H136.441V26.1656C136.441 29.7684 135.929 32.8314 134.908 35.3514C133.887 37.8746 132.447 39.9351 130.593 41.5391C128.73 43.143 126.487 44.309 123.85 45.0524C121.213 45.7896 118.304 46.1597 115.121 46.1597Z" fill="#717172"/>
</svg>
