<svg width="800" height="800" viewBox="0 0 800 800" fill="none" xmlns="http://www.w3.org/2000/svg">
    <path d="M533.334 426.667V373.333H586.667V426.667H533.334Z" fill="#794945"/>
    <path fill-rule="evenodd" clip-rule="evenodd" d="M400.001 22.4609L746.667 224.683V575.317L400.001 777.536L53.334 575.317V224.683L400.001 22.4609ZM337.684 213.333C239.552 213.333 160.001 292.885 160.001 391.017V408.983C160.001 507.115 239.552 586.667 337.684 586.667C365.268 586.667 392.474 580.245 417.146 567.909L438.593 557.184L414.741 509.482L393.295 520.205C376.028 528.839 356.988 533.333 337.684 533.333C269.007 533.333 213.334 477.66 213.334 408.983V391.017C213.334 322.34 269.007 266.667 337.684 266.667C356.988 266.667 376.028 271.161 393.295 279.795L414.741 290.518L438.593 242.815L417.146 232.092C392.474 219.756 365.268 213.333 337.684 213.333ZM480.001 266.667V320H426.667V373.333H480.001V426.667H426.667V480H480.001V533.333H533.334V480H586.667V533.333H640.001V480H693.334V426.667H640.001V373.333H693.334V320H640.001V266.667H586.667V320H533.334V266.667H480.001Z" fill="#794945"/>
</svg>
