<svg width="1231" height="800" viewBox="0 0 1231 800" fill="none" xmlns="http://www.w3.org/2000/svg">
    <path d="M883.171 799.491C808.286 794.093 734.273 775.244 688.882 750.01C663.026 735.638 643.329 717.974 635.599 702.231L631 692.864V399.057V105.251L634.639 97.8617C650.902 64.8445 702.803 35.0794 775.254 17.22C799.847 11.1571 835.352 5.11943 864.317 2.07486C893.894 -1.03485 972.29 -0.561732 1001.79 2.90913C1080.21 12.1217 1146.93 32.7464 1188.05 60.4824C1203.91 71.1784 1220.18 88.293 1225.7 100.074L1230.42 110.174L1230.02 403.092L1229.61 696.011L1225.82 703.719C1223.73 707.958 1217.43 716.298 1211.81 722.251C1177.62 758.497 1104.28 785.31 1008.08 796.734C988.471 799.063 903.287 800.941 883.171 799.491ZM1021.17 547.738C1020.88 546.987 1009.69 537.015 996.294 525.576C982.9 514.137 971.364 504.24 970.659 503.583C969.954 502.926 972.429 500.6 976.158 498.413C979.888 496.227 987.034 490.145 992.038 484.897C1006.67 469.552 1013.58 450.596 1013.58 425.767C1013.58 401.324 1006.13 381.602 991.215 366.547C976.183 351.372 958.922 344.852 933.787 344.852C895.044 344.852 865.289 367.459 855.791 404.11C852.524 416.717 852.542 442.191 855.826 453.37C864.39 482.528 887.716 503.705 916.747 508.678C926.571 510.361 927.902 511.086 934.599 518.409C938.58 522.76 946.748 531.447 952.751 537.712L963.665 549.103H992.68C1008.64 549.103 1021.46 548.489 1021.17 547.738ZM921.668 466.499C914.683 462.857 912.042 460.03 908.058 451.933C904.982 445.678 904.456 442.121 904.421 427.339C904.387 412.318 904.865 409.072 908.077 402.55C913.333 391.877 920.575 386.824 931.778 386.014C947.373 384.882 956.375 392.536 961.093 410.929C966.877 433.48 960.516 457.456 946.638 465.413C939.357 469.587 928.497 470.06 921.668 466.499ZM793.061 508.358C823.481 502.589 840.75 484.898 840.75 459.502C840.75 436.972 829.601 423.844 798.788 410.088C781.149 402.214 774.76 397.271 774.76 391.497C774.76 386.71 780.824 381.465 787.882 380.148C794.774 378.861 813.052 382.035 823.846 386.395L832.894 390.051V370.023V349.995L823.074 347.816C817.005 346.47 804.252 345.662 789.687 345.704C769.055 345.704 765.015 346.206 757.251 349.29C734.571 358.293 723.809 373.63 723.981 396.701C724.142 418.299 735.536 431.771 763.893 443.891C780.624 451.042 787.33 456.487 787.33 462.922C787.33 476.596 764.546 478.279 740.423 466.386C733.817 463.129 727.881 460.199 727.233 459.875C726.585 459.55 726.055 468.906 726.055 480.665C726.055 501.95 726.078 502.052 729.931 503.519C744.443 509.037 776.517 511.495 793.061 508.358ZM1140.84 488.613V470.545H1113.35H1085.85V408.484V346.423H1061.5H1037.14V426.552V506.681H1088.99H1140.84V488.613ZM971.156 171.984C1019.55 168.628 1055.83 162.29 1087.75 151.617C1119.55 140.984 1138.34 128.118 1142.54 114.093C1144.16 108.688 1144.04 106.638 1141.78 100.713C1131.63 74.1468 1074.96 53.7362 988.35 45.4607C951.304 41.9202 883.93 43.0679 848.607 47.8394C794.71 55.1217 750.969 68.6482 731.52 84.0482C692.177 115.203 733.783 149.468 830.538 165.596C872.49 172.589 926.842 175.058 971.156 171.984Z" fill="#794945"/>
    <path d="M484 433.333V380H537.333V433.333H484Z" fill="#794945"/>
    <path fill-rule="evenodd" clip-rule="evenodd" d="M346.667 22L693.333 224.222V574.856L346.667 777.075L0 574.856V224.222L346.667 22ZM284.35 212.872C186.218 212.872 106.667 292.424 106.667 390.556V408.522C106.667 506.654 186.218 586.206 284.35 586.206C311.934 586.206 339.14 579.784 363.812 567.448L385.259 556.723L361.407 509.021L339.961 519.744C322.694 528.378 303.654 532.872 284.35 532.872C215.673 532.872 160 477.199 160 408.522V390.556C160 321.879 215.673 266.206 284.35 266.206C303.654 266.206 322.694 270.7 339.961 279.334L361.407 290.057L385.259 242.355L363.812 231.631C339.14 219.295 311.934 212.872 284.35 212.872ZM426.667 266.206V319.539H373.333V372.872H426.667V426.206H373.333V479.539H426.667V532.872H480V479.539H533.333V532.872H586.667V479.539H640V426.206H586.667V372.872H640V319.539H586.667V266.206H533.333V319.539H480V266.206H426.667Z" fill="#794945"/>
</svg>
