<svg width="800" height="800" viewBox="0 0 800 800" fill="none" xmlns="http://www.w3.org/2000/svg">
	<path d="M754.861 0.782715L688.314 721.586L399.995 799.217L111.671 721.586L45.1387 0.782715H754.861ZM620.765 147.347H399.736H174.79L185.548 234.391H399.736H411.767L399.736 239.398L193.376 325.345L200.22 410.428L399.736 411.075L506.67 411.414L499.825 524.861L399.734 553.041V552.951L398.914 553.18L302.251 528.778L296.386 458.356H296.065H206.406H206.09L217.826 594.305L399.737 648.1V648.003L400.065 648.1L581.001 595.284L604.471 325.345H399.737H399.232L399.737 325.126L611.971 234.391L620.765 147.347Z" fill="#794945"/>
</svg>
