<svg width="800" height="800" viewBox="0 0 800 800" fill="none" xmlns="http://www.w3.org/2000/svg">
    <path d="M550.976 153.725C522.926 125.775 494.526 98.2002 465.501 71.2752C457.326 62.4002 445.651 56.8502 432.676 56.8502C432.476 56.8502 432.301 56.8502 432.101 56.8502C422.076 57.8252 412.901 59.9752 404.201 63.1752L404.976 62.9252L223.476 153.675L550.976 153.725ZM174.876 174.875V542.6C174.626 544.675 174.476 547.075 174.476 549.5C174.476 565.05 180.551 579.2 190.451 589.675L190.426 589.65L343.976 743.175H610.201V610.175L174.876 174.875ZM153.701 153.675C153.701 153.675 311.351 74.9002 390.151 35.4752C402.551 29.2252 417.151 25.5752 432.626 25.5752C433.926 25.5752 435.251 25.6002 436.551 25.6502H436.376C456.526 29.6252 474.201 38.2502 488.901 50.4002L488.701 50.2502L774.426 336V641.4H641.426V774.4H331.076L50.3008 493.625C35.4258 478.325 26.1008 457.55 25.6758 434.575V434.5C26.9508 421.725 30.4508 410.05 35.8008 399.45L35.5508 400.025L153.701 153.675Z" fill="#794945"/>
</svg>
