<svg width="800" height="800" viewBox="0 0 800 800" fill="none" xmlns="http://www.w3.org/2000/svg">
    <path d="M382.609 0H260.87C193.635 0 139.131 54.5043 139.131 121.739C139.131 188.974 193.635 243.478 260.87 243.478H382.609V0Z" fill="#794945"/>
    <path d="M417.391 0H539.13C606.365 0 660.869 54.5043 660.869 121.739C660.869 188.974 606.365 243.478 539.13 243.478H417.391V0Z" fill="#794945"/>
    <path d="M382.609 278.261H260.87C193.635 278.261 139.131 332.765 139.131 400C139.131 467.235 193.635 521.739 260.87 521.739H382.609V278.261Z" fill="#794945"/>
    <path d="M382.609 556.521H260.87C193.635 556.521 139.131 611.026 139.131 678.261C139.131 745.495 193.635 800 260.87 800C328.105 800 382.609 745.495 382.609 678.261V556.521Z" fill="#794945"/>
    <path d="M539.13 521.739C606.365 521.739 660.869 467.235 660.869 400C660.869 332.765 606.365 278.261 539.13 278.261C471.895 278.261 417.391 332.765 417.391 400C417.391 467.235 471.895 521.739 539.13 521.739Z" fill="#794945"/>
</svg>
