<svg width="600" height="600" viewBox="0 0 600 600" fill="none" xmlns="http://www.w3.org/2000/svg">
    <path d="M0 108.333C0 48.5023 48.5023 0 108.333 0H491.667C551.497 0 600 48.5023 600 108.333V491.667C600 551.497 551.497 600 491.667 600H108.333C48.5023 600 0 551.497 0 491.667V108.333ZM300 216.667C286.193 216.667 275 227.86 275 241.667V441.667C275 446.27 271.27 450 266.667 450H225C211.193 450 200 461.193 200 475C200 488.807 211.193 500 225 500H266.667C298.883 500 325 473.883 325 441.667V241.667C325 227.86 313.807 216.667 300 216.667ZM366.667 275V325C366.667 357.217 392.783 383.333 425 383.333H441.667C446.27 383.333 450 387.063 450 391.667V441.667C450 446.27 446.27 450 441.667 450H391.667C377.86 450 366.667 461.193 366.667 475C366.667 488.807 377.86 500 391.667 500H441.667C473.883 500 500 473.883 500 441.667V391.667C500 359.45 473.883 333.333 441.667 333.333H425C420.397 333.333 416.667 329.603 416.667 325V275C416.667 270.397 420.397 266.667 425 266.667H475C488.807 266.667 500 255.473 500 241.667C500 227.86 488.807 216.667 475 216.667H425C392.783 216.667 366.667 242.783 366.667 275Z" fill="#794945"/>
</svg>
