<svg width="149" height="89" viewBox="0 0 149 89" fill="none" xmlns="http://www.w3.org/2000/svg">
    <path d="M84.1606 69.8203C81.8266 67.4863 81.8266 63.7022 84.1606 61.3682L99.1143 46.4145C101.448 44.0806 105.232 44.0805 107.566 46.4145L122.52 61.3682C124.854 63.7021 124.854 67.4863 122.52 69.8203L107.566 84.774C105.232 87.108 101.448 87.1079 99.1143 84.774L84.1606 69.8203ZM100.09 62.3434C99.551 62.882 99.5509 63.7553 100.09 64.2939L107.891 72.0958C108.071 72.2754 108.071 72.5664 107.891 72.746L106.266 74.3714C105.727 74.91 105.727 75.7833 106.266 76.3219C106.805 76.8605 107.678 76.8605 108.217 76.3219L109.842 74.6965C111.099 73.4397 111.099 71.4021 109.842 70.1454L102.04 62.3434C101.501 61.8048 100.628 61.8048 100.09 62.3434ZM104.966 62.0184L106.916 63.9688C108.173 65.2256 110.211 65.2256 111.467 63.9688L112.118 63.3187C112.297 63.1391 112.588 63.1391 112.768 63.3187L114.718 65.2692C114.898 65.4487 114.898 65.7397 114.718 65.9193L112.768 67.8698C112.229 68.4084 112.229 69.2817 112.768 69.8203C113.306 70.3589 114.18 70.3589 114.718 69.8203L116.669 67.8698C117.925 66.613 117.925 64.5754 116.669 63.3187L114.718 61.3682C113.461 60.1114 111.424 60.1114 110.167 61.3682L109.517 62.0184C109.337 62.1979 109.046 62.1979 108.867 62.0184L106.916 60.0679C106.737 59.8883 106.737 59.5973 106.916 59.4177L108.867 57.4672C109.405 56.9286 109.405 56.0553 108.867 55.5168C108.328 54.9781 107.455 54.9782 106.916 55.5168L104.966 57.4672C103.709 58.724 103.709 60.7616 104.966 62.0184Z" fill="#794945"/>
    <path fill-rule="evenodd" clip-rule="evenodd" d="M131.266 38.6065L131.259 38.6135L122.768 47.1047L124.942 48.8727L133.035 40.7796C134.643 42.6248 137.942 46.6418 139.475 48.438L136.209 54.2632L136.213 54.2671L136.208 54.2819L130.058 57.2301L125.966 53.7613L128.196 51.5317L130.387 53.407L133.787 51.8536L133.793 51.8475L135.379 48.4878L132.579 45.1783L124.881 52.8753C124.449 52.5173 118.839 47.8642 118.369 47.5613L129.494 36.4364C130.082 37.1492 130.687 37.8807 131.266 38.6065ZM111.127 46.9194L130.627 63.1902L139.696 57.7707L145.098 48.6451L128.866 29.1801L111.127 46.9194Z" fill="#794945"/>
    <path d="M42.1407 2.72119L0 44.7701L12.9782 57.7352L67.9919 2.76324H42.1863L42.1407 2.72119ZM42.1898 41.5183L19.4919 64.1441L42.1863 86.8155H68.0481L45.3888 64.1512L68.0481 41.5148H42.1933L42.1898 41.5183Z" fill="#794945"/>
    <path d="M103.948 -0.000161777L124.342 24.5418L117.775 35.9485L106.368 42.5159L81.8262 22.1221L103.948 -0.000161777ZM104.337 8.74807L97.4475 15.6376L90.4359 22.6492L93.4844 25.0271L100.161 18.3508L100.536 17.9758L100.317 18.5069L96.5635 27.6182L99.4289 30.0569L105.668 23.8581L109.012 20.5355L112.335 24.285L110.093 28.2833L110.09 28.2805L110.072 28.3132L106.298 30.5656L103.92 28.5533L103.91 28.5633L101.116 31.358L101.106 31.3679L105.709 35.2396L113.056 31.2462L113.053 31.2432L113.066 31.236L117.06 23.9499L109.377 14.8042L102.996 21.1858L102.98 21.2016L102.989 21.179L106.776 11.7354L104.337 8.74807Z" fill="#794945"/>
</svg>
