<svg width="295" height="318" viewBox="0 0 295 318" fill="none" xmlns="http://www.w3.org/2000/svg">
    <path d="M200.552 248.11L247.138 194.52L200.232 160.425L237.037 138.747C237.037 138.747 294.767 173.857 294.003 194.937C293.322 214.126 220.545 262.669 220.545 262.669L200.552 248.11Z" fill="#FFBF9D"/>
    <path d="M201.069 248.155C201.069 248.155 173.79 278.289 173.176 279.422C172.563 280.555 165.213 297.95 167.026 301.474C168.839 304.998 182.507 317.373 182.507 317.373C182.507 317.373 187.388 315.261 182.772 306.983L178.155 298.719L180.638 290.329C180.638 290.329 184.32 300.914 186.453 303.236C188.587 305.557 197.039 309.528 199.159 307.431C200.423 306.218 201.277 304.638 201.599 302.914C201.599 302.914 207.387 307.529 211.473 300.187C211.473 300.187 216.619 299.39 218.823 295.783C221.026 292.175 220.803 285.351 220.803 285.351C220.59 284.906 220.28 284.514 219.895 284.207C219.51 283.899 219.061 283.682 218.58 283.573C218.1 283.464 217.601 283.466 217.122 283.577C216.642 283.689 216.194 283.908 215.81 284.218C213.624 285.883 211.936 288.118 210.929 290.679L208.544 287.49C209.166 283.186 210.392 278.992 212.184 275.031C213.844 271.843 224.555 264.893 225.824 259.356C226.898 254.672 217.554 251.567 212.756 251.833C212.037 251.873 211.327 252.019 210.65 252.266L201.069 248.155Z" fill="#FFBF9D"/>
    <path d="M132.131 68.3982C132.131 59.2261 132.131 49.9979 130.511 40.9518C128.891 31.9057 125.695 22.9856 119.927 15.7459C119.046 14.6536 112.326 7.60998 111.033 8.15611C110.109 8.56221 115.11 15.5358 114.897 16.5581C112.851 25.8283 114.67 35.6165 118.364 44.3826C122.033 52.8715 126.651 60.9311 132.131 68.4122" fill="#263238"/>
    <path d="M121.806 34.9898C115.561 13.0685 97.7449 -1.52721 76.2369 5.39604L74.2879 6.14525C64.8244 9.81843 57.0753 16.9574 52.5815 26.1426C48.0878 35.3278 47.1786 45.8861 50.0349 55.7179C55.5251 74.684 61.8938 95.5648 65.7506 105.388C73.7664 125.727 95.1919 121.066 95.1919 121.066L108.561 152.144L151.11 130.098L121.806 34.9898Z" fill="#FFBF9D"/>
    <path d="M95.2891 120.672C104.654 117.112 112.789 110.988 118.732 103.021C118.732 103.021 119.339 121.717 98.3642 127.583L95.2891 120.672Z" fill="#FF9A6C"/>
    <path d="M64.147 74.3417C64.4076 75.0569 64.9236 75.6368 65.5851 75.9576C66.2466 76.2784 67.0011 76.3147 67.6877 76.0589C68.0307 75.9528 68.35 75.7756 68.6269 75.5377C68.9038 75.2998 69.1326 75.0061 69.2999 74.6739C69.4672 74.3417 69.5695 73.9776 69.601 73.6031C69.6324 73.2286 69.5923 72.8513 69.4829 72.4934C69.2126 71.7875 68.6933 71.2187 68.0334 70.906C67.3736 70.5933 66.6243 70.5609 65.9422 70.8155C65.6035 70.9219 65.2881 71.0978 65.0142 71.333C64.7404 71.5681 64.5135 71.858 64.3466 72.1857C64.1797 72.5135 64.0762 72.8727 64.0419 73.2427C64.0076 73.6128 64.0433 73.9862 64.147 74.3417Z" fill="#263238"/>
    <path d="M57.4521 62.8103C57.9456 63.0962 59.4663 60.2528 62.4942 58.8708C65.522 57.4889 68.3099 58.299 68.4833 57.7112C68.59 57.4412 67.9764 56.8058 66.7492 56.4087C65.0948 55.9302 63.3565 56.0745 61.7739 56.8217C60.2016 57.5268 58.8601 58.8127 57.9456 60.4911C57.2787 61.7619 57.2254 62.6991 57.4521 62.8103Z" fill="#263238"/>
    <path d="M90.9774 64.2797C91.2808 64.9916 91.894 65.5726 92.6859 65.8983C93.4777 66.2241 94.3855 66.2688 95.215 66.023C95.6272 65.9185 96.011 65.7435 96.3436 65.5083C96.6762 65.2731 96.9508 64.9825 97.1512 64.6538C97.3515 64.325 97.4736 63.9647 97.5101 63.5944C97.5466 63.224 97.4968 62.8511 97.3636 62.4977C97.0602 61.7858 96.447 61.2048 95.6551 60.879C94.8632 60.5533 93.9555 60.5085 93.126 60.7544C92.7149 60.8604 92.3324 61.0363 92.001 61.2719C91.6695 61.5074 91.3956 61.7979 91.1955 62.1262C90.9954 62.4546 90.873 62.8141 90.8356 63.1839C90.7981 63.5537 90.8463 63.9262 90.9774 64.2797Z" fill="#263238"/>
    <path d="M88.7094 51.6494C89.2031 51.8877 90.724 49.5052 93.7526 48.367C96.7812 47.2287 99.5563 47.8905 99.743 47.3875C99.8498 47.1757 99.2361 46.6463 98.0086 46.3154C96.3547 45.9186 94.6179 46.0341 93.0321 46.6463C91.4574 47.243 90.1127 48.3176 89.1897 49.717C88.5493 50.7759 88.4826 51.5568 88.7094 51.6494Z" fill="#263238"/>
    <path d="M86.3565 80.6288C86.3565 80.4346 84.3017 80.8508 81.1127 81.6553C80.3122 81.8911 79.5249 82.0159 79.1913 81.5166C78.813 80.7174 78.6869 79.8145 78.8311 78.9366C78.8311 76.7172 78.8311 74.373 78.8311 71.9317C78.8311 61.9723 78.4441 53.8994 78.0572 53.8994C77.6702 53.8994 77.39 61.9862 77.4301 71.9317C77.4301 74.3869 77.4301 76.7172 77.5101 78.9504C77.3906 80.1091 77.6593 81.2751 78.2707 82.2517C78.4892 82.4886 78.7562 82.6714 79.0518 82.7866C79.3474 82.9018 79.6641 82.9466 79.9786 82.9175C80.4344 82.8618 80.8823 82.7501 81.3129 82.5846C84.5018 81.5443 86.4098 80.8092 86.3565 80.6288Z" fill="#263238"/>
    <path d="M96.9139 78.4714C96.3523 78.6368 97.7416 82.014 95.628 85.5291C93.5144 89.0441 89.4941 90.0642 89.7158 90.5467C89.7158 90.781 90.8539 90.8913 92.4946 90.3537C94.6146 89.6254 96.3967 88.2315 97.5347 86.4113C98.6141 84.6376 98.916 82.5432 98.3772 80.5666C97.9043 79.0503 97.1504 78.3611 96.9139 78.4714Z" fill="#263238"/>
    <path d="M84.2054 39.2043C84.8239 39.9192 87.7148 38.3545 91.4527 37.4103C95.1907 36.4661 98.4446 36.3312 98.6328 35.414C98.7135 34.9688 97.9068 34.3888 96.4411 34.0651C94.5091 33.6649 92.5104 33.725 90.6056 34.2405C88.6982 34.7124 86.932 35.6377 85.4559 36.9382C84.3398 37.9499 83.9364 38.8671 84.2054 39.2043Z" fill="#263238"/>
    <path d="M54.2643 51.5775C55.1262 52.0393 57.0654 50.5898 59.7516 49.6405C62.4378 48.6912 64.9086 48.3577 65.1384 47.4982C65.2246 47.0877 64.5782 46.5489 63.3141 46.2154C61.6561 45.9382 59.9434 46.1016 58.3883 46.6854C56.8333 47.2691 55.5043 48.2476 54.5659 49.4994C53.8477 50.5641 53.8477 51.3466 54.2643 51.5775Z" fill="#263238"/>
    <path d="M126.549 50.4165C126.833 50.1276 138.722 40.9505 143.47 54.9707C148.218 68.9909 133.474 70.9997 133.312 70.6007C133.15 70.2017 126.549 50.4165 126.549 50.4165Z" fill="#FFBF9D"/>
    <path d="M135.799 64.4004C135.799 64.4004 136.118 64.4871 136.625 64.5305C137.329 64.5835 138.026 64.3604 138.568 63.9087C139.916 62.7951 140.38 59.8737 139.525 57.1838C139.132 55.9149 138.47 54.7457 137.582 53.7562C137.282 53.3458 136.886 53.0143 136.429 52.7901C135.972 52.5659 135.467 52.4557 134.958 52.4691C134.639 52.5042 134.34 52.6439 134.109 52.8664C133.878 53.0889 133.728 53.3815 133.682 53.6984C133.682 54.1756 133.827 54.4359 133.754 54.4938C133.682 54.5516 133.348 54.3492 133.261 53.6984C133.209 53.3033 133.302 52.9025 133.522 52.5703C133.822 52.1238 134.285 51.8123 134.813 51.7026C135.461 51.6123 136.122 51.6899 136.731 51.928C137.34 52.1661 137.878 52.5566 138.292 53.062C139.373 54.116 140.171 55.4239 140.612 56.8656C141.555 59.8593 141.004 63.1711 139.075 64.5305C138.72 64.7816 138.313 64.9496 137.884 65.0222C137.454 65.0948 137.014 65.0701 136.596 64.9499C135.944 64.7474 135.755 64.4437 135.799 64.4004Z" fill="#FF9A6C"/>
    <path d="M50.3809 28.9795C47.5884 28.4951 52.0425 18.7517 56.8457 14.3091C64.1064 7.56904 76.3937 0.815145 85.0786 0.386107C95.5088 -0.125972 105.017 1.92234 112.725 8.91152C120.319 16.111 125.838 25.1885 128.712 35.2074C129.858 38.1737 130.181 41.3899 129.648 44.5217C128.712 48.3139 125.571 51.5663 127.204 55.829C127.526 56.5918 127.692 57.4103 127.692 58.2371C127.692 59.0639 127.526 59.8825 127.204 60.6453C125.529 64.2713 121.452 62.7489 119.106 60.6453C114.079 56.1611 111.468 49.6563 109.039 43.4007C107.307 38.9581 105.548 34.4047 105.353 29.6438C105.255 27.0557 105.618 24.4538 105.353 21.8657C105.307 20.5661 104.977 19.2918 104.387 18.1306C103.796 16.9694 102.959 15.949 101.932 15.1395C101.436 14.8338 100.912 14.5744 100.368 14.3645C97.792 13.3094 94.9791 12.9533 92.2184 13.3327C89.4577 13.7122 86.8488 14.8135 84.6597 16.5235C77.5806 22.0595 65.2933 30.834 60.7833 29.3393C54.3045 27.1664 52.1961 25.0489 52.1961 25.0489L50.3809 28.9795Z" fill="#263238"/>
    <path d="M29.6984 159.958C29.6984 159.958 27.6824 154.358 34.5175 146.828C41.3527 139.297 95.523 124.509 95.523 124.509C95.523 124.509 115.214 146.461 132.253 131.468C144.681 120.594 145.095 109.72 145.095 109.72H194.115L200.232 159.292L180.693 159.401L29.6984 159.958Z" fill="#FF725E"/>
    <path d="M185.718 109.228C185.718 109.228 198.499 106.643 210.176 111.993C229.789 120.911 263.867 149.323 263.867 149.323L222.46 183.403L193.751 159.816L185.718 109.228Z" fill="#FF725E"/>
    <path d="M11.5322 152.629C11.6289 152.841 11.7117 153.053 11.7945 153.265C12.1341 154.269 12.3384 155.316 12.4018 156.376C12.3972 156.877 12.4202 157.377 12.4708 157.875C12.5817 158.177 12.7155 158.47 12.871 158.752C13.4776 160.753 13.6611 162.865 13.4093 164.945C13.1496 167.215 13.5379 169.513 14.5272 171.562C15.6866 173.513 18.378 174.659 20.2136 173.358C20.1247 174.078 20.296 174.806 20.6952 175.405C21.0944 176.004 21.6939 176.433 22.3805 176.61C23.0756 176.763 23.7976 176.731 24.4769 176.515C25.1562 176.3 25.7698 175.909 26.2588 175.38C27.2303 174.317 27.8987 173.001 28.191 171.576C28.2196 172.428 28.5691 173.235 29.1661 173.828C29.7632 174.421 30.5613 174.755 31.393 174.758C32.2238 174.718 33.0313 174.463 33.7406 174.018C34.4499 173.573 35.0382 172.952 35.4508 172.213C36.2482 170.717 36.7191 169.063 36.8309 167.363C37.0489 165.177 37.3853 163.006 37.8385 160.858C37.8385 160.858 39.9226 161.212 40.8749 161.297H41.1509C41.9868 160.23 42.6572 159.038 43.1384 157.762C44.5186 154.934 45.4847 153.181 46.4922 150.692C47.2651 148.797 47.7482 146.888 46.6027 145.658C43.8423 142.675 38.432 148.741 38.432 148.741C37.6591 146.62 31.3792 146.28 30.1509 149.094C29.654 147.539 29.8473 146.648 28.6189 145.602C28.0175 145.067 27.302 144.685 26.5301 144.486C25.7581 144.287 24.9513 144.277 24.1747 144.456C23.3899 144.65 22.6912 145.107 22.1907 145.756C21.6901 146.405 21.4167 147.207 21.4144 148.034C20.7428 146.974 19.775 146.147 18.6374 145.661C17.4999 145.174 16.2454 145.05 15.0379 145.305C13.5931 145.667 12.3298 146.563 11.4908 147.822C11.0759 148.44 10.7721 149.13 10.5937 149.858C10.4956 150.129 10.4442 150.416 10.4419 150.706C10.4644 150.834 10.5063 150.958 10.5661 151.074C10.925 151.583 11.2838 152.063 11.5322 152.629Z" fill="#FFBF9D"/>
    <path d="M5.3873 148.823C4.70797 148.747 4.02027 148.82 3.3718 149.036C2.72333 149.253 2.12957 149.607 1.63159 150.076C0.633217 151.615 0.218401 153.46 0.462222 155.279C2.34695 155.637 3.32374 155.719 5.22222 156.077C5.62118 156.146 5.95134 156.077 6.28151 156.284C7.14821 156.903 7.01064 159.037 7.35457 160C7.72566 160.852 8.40783 161.531 9.26179 161.896C10.1158 162.262 11.0771 162.288 11.9494 161.969C12.8048 161.6 13.5373 160.995 14.0612 160.225C14.5851 159.454 14.8786 158.55 14.9072 157.619C14.9201 155.741 14.2335 153.925 12.9812 152.526C12.0392 151.418 10.8782 150.517 9.57133 149.88C8.26444 149.243 6.8399 148.883 5.3873 148.823Z" fill="#FFBF9D"/>
    <path d="M21.4403 147.679C21.6608 147.679 21.6608 153.464 21.4403 160.552C21.2198 167.64 20.8635 173.369 20.6515 173.355C20.4394 173.341 20.431 167.57 20.6515 160.482C20.872 153.394 21.2282 147.595 21.4403 147.679Z" fill="#FF9A6C"/>
    <path d="M30.0937 148.794C30.396 148.794 30.7949 154.098 30.3113 160.622C29.8277 167.146 28.6671 172.309 28.377 172.238C28.0868 172.167 28.7276 166.948 29.187 160.509C29.6464 154.07 29.7431 148.808 30.0937 148.794Z" fill="#FF9A6C"/>
    <path d="M39.1874 149.911C39.5179 149.911 39.6578 154.238 39.0348 159.498C38.4118 164.758 37.6871 168.918 37.382 168.89C37.0769 168.862 37.2549 164.549 37.8651 159.331C38.4754 154.113 38.8568 149.897 39.1874 149.911Z" fill="#FF9A6C"/>
    <path d="M8.20916 150.066C8.20916 149.92 9.1355 149.72 10.4688 150.306C12.1497 151.122 13.4249 152.531 14.0197 154.231C14.6439 155.845 14.9438 157.555 14.904 159.274C14.7496 160.791 13.5846 161.23 13.5004 161.03C13.4162 160.83 14.0338 160.365 13.9215 159.247C13.6868 157.689 13.2919 156.155 12.7425 154.67C12.2177 153.224 11.238 151.966 9.9355 151.064C9.00918 150.399 8.19513 150.252 8.20916 150.066Z" fill="#FF9A6C"/>
</svg>
