<svg width="97" height="97" viewBox="0 0 97 97" fill="none" xmlns="http://www.w3.org/2000/svg">
    <g clip-path="url(#clip0_31_2353)">
        <path d="M68.5343 90.1287H92.3982L86.2721 71.7489C84.67 66.9426 80.5818 63.3786 75.6018 62.445L59.2289 59.3741V55.5853C63.1511 52.7548 65.9195 48.4433 66.7229 43.4711C70.383 42.8523 73.1871 39.6806 73.1871 35.8468V24.9904C73.1871 11.3082 62.0546 0.175781 48.3725 0.175781C34.6903 0.175781 23.5578 11.3082 23.5578 24.9904V35.8468C23.5578 39.676 26.3479 42.8662 30.0019 43.4912C30.8084 48.4635 33.5923 52.7797 37.5161 55.6085V59.3757L21.1415 62.4465C16.1631 63.3801 12.0733 66.9441 10.4712 71.7504L4.34668 90.1287H28.2106V87.0269H23.9937L26.6131 76.5459L23.6044 75.7952L20.7957 87.0269H8.64891L13.4149 72.7306C14.6603 68.9929 17.8412 66.2199 21.7138 65.4925L31.5931 63.6407L34.1196 75.0058C32.4694 75.7223 31.3124 77.3632 31.3124 79.2724V91.6797C31.3124 94.2449 33.3999 96.3324 35.9652 96.3324H60.7798C63.345 96.3324 65.4325 94.2449 65.4325 91.6797V79.2724C65.4325 77.3632 64.2755 75.7223 62.6269 75.0058L65.1533 63.6407L75.0327 65.4925C78.9053 66.2199 82.0847 68.9929 83.3316 72.7306L88.096 87.0269H75.9492L73.1405 75.7952L70.1318 76.5459L72.7513 87.0269H68.5343V90.1287ZM62.1027 63.0684L59.9609 72.7058L58.8892 68.416H52.1164L58.1959 62.3364L62.1027 63.0684ZM57.2421 74.6196H39.5028L40.2782 71.5178H56.4667L57.2421 74.6196ZM48.3725 67.7739L40.6179 60.0193V57.4045C42.9815 58.4932 45.6041 59.1105 48.3725 59.1105C51.1424 59.1105 53.7634 58.4855 56.127 57.3967V60.0193L48.3725 67.7739ZM66.9834 40.2142V31.481C68.784 32.123 70.0852 33.829 70.0852 35.8483C70.0852 37.8676 68.784 39.5721 66.9834 40.2142ZM29.7615 40.2343C27.9562 39.5938 26.6597 37.8692 26.6597 35.8468C26.6597 33.8244 27.9562 32.0998 29.7615 31.4593V40.2343ZM26.6597 29.6835V24.9904C26.6597 13.0173 36.3994 3.27761 48.3725 3.27761C60.3455 3.27761 70.0852 13.0173 70.0852 24.9904V29.6835C69.1671 28.9886 68.1063 28.4753 66.9338 28.2442C66.6903 26.4126 65.1363 24.9904 63.2395 24.9904C62.2547 24.9904 61.29 25.3905 60.5146 26.166C57.8951 28.7855 54.5761 30.4558 50.9811 30.9986L51.0803 30.8001C51.3378 30.2821 51.4743 29.7036 51.4743 29.1251V28.7343C51.4743 26.67 49.7946 24.9904 47.7304 24.9904C46.7455 24.9904 45.7809 25.3905 45.083 26.0869C41.8152 29.3531 37.4804 31.1646 32.8633 31.194V28.0922H31.3124C29.5599 28.0922 27.9593 28.6986 26.6597 29.6835ZM32.8633 40.4995V34.2959C38.3086 34.2664 43.4235 32.1323 47.2744 28.2814C47.6482 27.9061 48.3725 28.2116 48.3725 28.7343V29.1251C48.3725 29.2244 48.3492 29.3236 48.3042 29.4136L45.8631 34.2959H48.3725C53.7882 34.2959 58.8783 32.1882 62.7835 28.2814C63.1589 27.9061 63.8816 28.2116 63.8816 28.7343V40.4995C63.8816 49.0513 56.9242 56.0087 48.3725 56.0087C39.8207 56.0087 32.8633 49.0513 32.8633 40.4995ZM38.549 62.3364L44.6286 68.416H37.8557L36.784 72.7058L34.6422 63.0684L38.549 62.3364ZM35.9652 93.2306C35.1106 93.2306 34.4142 92.5358 34.4142 91.6797V79.2724C34.4142 78.4163 35.1106 77.7214 35.9652 77.7214H40.79C38.7723 79.6942 37.5161 82.4393 37.5161 85.476C37.5161 88.5127 38.7723 91.2578 40.79 93.2306H35.9652ZM48.3725 93.2306C44.0966 93.2306 40.6179 89.7519 40.6179 85.476C40.6179 81.2001 44.0966 77.7214 48.3725 77.7214C52.6483 77.7214 56.127 81.2001 56.127 85.476C56.127 89.7519 52.6483 93.2306 48.3725 93.2306ZM62.3307 91.6797C62.3307 92.5358 61.6343 93.2306 60.7798 93.2306H55.9549C57.9726 91.2578 59.2289 88.5127 59.2289 85.476C59.2289 82.4393 57.9726 79.6942 55.9549 77.7214H60.7798C61.6343 77.7214 62.3307 78.4163 62.3307 79.2724V91.6797Z" fill="#794945"/>
        <path d="M48.3725 80.8232C45.8073 80.8232 43.7197 82.9108 43.7197 85.476C43.7197 88.0412 45.8073 90.1287 48.3725 90.1287C50.9377 90.1287 53.0252 88.0412 53.0252 85.476C53.0252 82.9108 50.9377 80.8232 48.3725 80.8232ZM48.3725 87.0269C47.5179 87.0269 46.8216 86.3321 46.8216 85.476C46.8216 84.6199 47.5179 83.9251 48.3725 83.9251C49.227 83.9251 49.9234 84.6199 49.9234 85.476C49.9234 86.3321 49.227 87.0269 48.3725 87.0269Z" fill="#794945"/>
    </g>
    <defs>
        <clipPath id="clip0_31_2353">
            <rect width="96.1566" height="96.1566" fill="white" transform="translate(0.293945 0.175781)"/>
        </clipPath>
    </defs>
</svg>
