<svg width="222" height="545" viewBox="0 0 222 545" fill="none" xmlns="http://www.w3.org/2000/svg">
    <path d="M88.3292 111.062L138.717 111.062C123.968 161.213 120.613 255.224 123.081 317.505L104.548 317.505C105.518 255.446 101.04 161.934 88.3292 111.062Z" fill="#F0F0F6"/>
    <path d="M11.8186 37.835C16.1081 42.6082 21.48 46.2827 27.4834 48.5499C33.4869 50.8172 39.9468 51.6112 46.3206 50.8651C45.1146 61.9545 44.0057 73.7508 48.386 83.9115C52.7663 94.0722 64.7844 101.336 73.9332 95.9435C70.5509 111.316 76.4837 128.574 88.3771 137.917C94.2785 142.484 101.435 145.139 108.887 145.525C116.339 145.912 123.731 144.011 130.073 140.079C142.757 131.998 150.214 115.433 148.218 99.7832C154.698 100.194 161.173 98.893 166.99 96.0097C172.808 93.1263 177.765 88.7626 181.362 83.3571C185.056 77.6521 187.348 71.1544 188.051 64.3945C188.755 57.6346 187.85 50.8042 185.41 44.4609C204.275 45.4728 222.268 20.7851 221.894 0.560745L0.978742 0.824108C-0.00685438 7.41024 0.452145 14.132 2.32397 20.523C4.19578 26.914 7.43563 32.8212 11.8186 37.835Z" fill="#F0F0F6"/>
    <path d="M135.298 397.687L92.7704 383.022C83.386 373.388 89.6931 359.789 97.6221 354.564C94.7282 353.169 92.3523 350.891 90.8376 348.059C89.3229 345.226 88.7477 341.985 89.1951 338.804C89.6425 335.623 91.0893 332.667 93.3266 330.362C95.5638 328.057 98.4758 326.523 101.642 325.981C100.585 324.395 99.874 322.605 99.5555 320.726C99.2371 318.847 99.3182 316.923 99.7936 315.077C100.269 313.232 101.128 311.508 102.315 310.017C103.502 308.526 104.989 307.302 106.681 306.425C108.373 305.548 110.23 305.037 112.132 304.926C114.035 304.815 115.939 305.107 117.721 305.781C119.503 306.456 121.123 307.499 122.475 308.841C123.827 310.184 124.881 311.797 125.567 313.574C127.356 318.273 126.51 323.818 129.033 328.157C131.417 332.218 136.116 334.173 139.956 336.918C149.465 343.71 153.818 356.324 152.431 367.926C151.045 379.529 144.156 390.022 135.298 397.687Z" fill="#F0F0F6"/>
    <path d="M109.412 388.053C107.779 383.855 106.997 379.374 107.111 374.871C107.132 374.232 107.354 373.615 107.745 373.109C108.136 372.602 108.676 372.232 109.289 372.049C109.902 371.867 110.557 371.882 111.161 372.092C111.765 372.303 112.288 372.698 112.655 373.221C112.475 367.717 112.656 362.207 113.196 356.726C113.266 355.955 113.572 355.224 114.073 354.633C114.574 354.043 115.245 353.622 115.995 353.427C116.745 353.233 117.536 353.275 118.261 353.548C118.986 353.821 119.608 354.311 120.044 354.952C127.932 366.453 131.379 380.426 129.747 394.277L109.412 388.053Z" fill="#823A3A"/>
    <path d="M172.496 394.943L172.496 394.943C172.503 403.351 170.622 411.654 166.991 419.237C163.467 426.597 158.382 433.097 152.094 438.288L152.107 399.307L172.496 385.129L172.496 394.943Z" fill="#823A3A" stroke="white"/>
    <path d="M89.9902 399.932L89.9902 438.372C83.7923 433.257 78.7797 426.853 75.3037 419.601C71.7205 412.126 69.8619 403.941 69.8649 395.651L69.8649 395.651L69.8649 385.974L89.9902 399.932Z" fill="#823A3A" stroke="white"/>
    <path d="M121.084 544.845C116.246 544.845 107.347 532.369 99.0854 511.452C94.1904 499.151 91.2937 486.146 90.505 472.93L90.505 383.023L151.566 383.023L151.566 464.613C151.609 472.573 150.895 480.519 149.431 488.344C147.929 496.217 145.802 503.958 143.069 511.493C135.32 532.425 125.866 544.762 121.084 544.845Z" fill="#F5F5F5"/>
    <path d="M150.956 397.604C150.956 397.507 137.413 397.369 120.709 397.272C104.006 397.175 90.4629 397.188 90.4629 397.272C90.4629 397.355 104.006 397.507 120.709 397.59C137.413 397.674 150.956 397.687 150.956 397.604Z" fill="#E0E0E0"/>
    <path d="M150.692 394.873C150.692 394.79 137.15 394.637 120.446 394.554C103.743 394.471 90.1997 394.457 90.1997 394.554C90.1997 394.651 103.729 394.79 120.446 394.887C137.163 394.984 150.692 394.956 150.692 394.873Z" fill="#E0E0E0"/>
    <path d="M150.734 392.004C150.734 391.907 137.191 391.768 120.488 391.671C103.785 391.574 90.2416 391.588 90.2416 391.671C90.2416 391.754 103.785 391.907 120.488 391.99C137.191 392.073 150.734 392.087 150.734 392.004Z" fill="#E0E0E0"/>
    <path d="M150.817 389.122C150.817 389.038 137.274 388.886 120.584 388.803C103.895 388.72 90.3241 388.706 90.3241 388.803C90.3241 388.9 103.867 389.025 120.571 389.122C137.274 389.219 150.817 389.219 150.817 389.122Z" fill="#E0E0E0"/>
    <path d="M150.817 386.252C150.817 386.155 137.274 386.016 120.571 385.919C103.867 385.822 90.3241 385.836 90.3241 385.919C90.3241 386.002 103.853 386.155 120.571 386.252C137.288 386.349 150.817 386.335 150.817 386.252Z" fill="#E0E0E0"/>
    <path d="M121.167 439.272C121.174 439.134 121.174 438.995 121.167 438.857C121.217 438.452 121.245 438.045 121.25 437.637C121.25 436.583 121.25 435.045 121.25 433.159C121.25 429.375 121.25 424.149 121.25 418.383C121.25 412.616 121.098 407.377 121.014 403.606C121.014 401.735 120.931 400.21 120.903 399.115C120.903 398.616 120.903 398.214 120.903 397.909C120.921 397.766 120.921 397.622 120.903 397.479C120.892 397.622 120.892 397.766 120.903 397.909C120.903 398.214 120.903 398.616 120.903 399.129C120.903 400.224 120.903 401.735 120.903 403.606C120.903 407.418 120.987 412.63 121.028 418.383C121.07 424.135 121.139 429.347 121.181 433.159C121.181 435.017 121.181 436.542 121.181 437.637C121.181 438.164 121.181 438.579 121.181 438.857C121.158 438.994 121.154 439.134 121.167 439.272Z" fill="#E0E0E0"/>
    <path d="M151.593 439.328C151.593 439.245 138.036 439.162 121.305 439.162C104.574 439.162 91.0035 439.231 91.0035 439.314C91.0035 439.397 104.574 439.48 121.305 439.48C138.036 439.48 151.593 439.411 151.593 439.328Z" fill="#E0E0E0"/>
    <path d="M126.046 409.622C126.046 409.622 126.143 409.761 126.42 409.9C126.814 410.07 127.254 410.099 127.668 409.983C127.993 409.916 128.293 409.762 128.537 409.537C128.782 409.313 128.96 409.026 129.054 408.708C129.179 408.322 129.183 407.908 129.065 407.52C128.946 407.133 128.71 406.791 128.39 406.543C128.071 406.294 127.682 406.15 127.277 406.131C126.872 406.111 126.471 406.217 126.129 406.434C125.845 406.598 125.611 406.835 125.45 407.12C125.289 407.405 125.207 407.729 125.214 408.056C125.215 408.487 125.356 408.905 125.616 409.248C125.796 409.484 125.949 409.553 125.963 409.539C125.976 409.525 125.866 409.415 125.713 409.179C125.519 408.838 125.428 408.448 125.45 408.056C125.454 407.774 125.531 407.498 125.675 407.254C125.818 407.011 126.022 406.81 126.268 406.67C126.562 406.49 126.904 406.404 127.248 406.424C127.592 406.443 127.922 406.568 128.194 406.781C128.465 406.993 128.665 407.284 128.767 407.613C128.869 407.943 128.867 408.296 128.763 408.624C128.689 408.893 128.546 409.137 128.35 409.334C128.153 409.531 127.908 409.673 127.64 409.747C127.266 409.866 126.864 409.866 126.489 409.747C126.198 409.692 126.06 409.609 126.046 409.622Z" fill="#E0E0E0"/>
    <path d="M126.379 426.936C126.379 426.936 126.476 427.075 126.753 427.2C127.147 427.368 127.585 427.402 128 427.297C128.325 427.228 128.625 427.074 128.869 426.849C129.113 426.625 129.291 426.339 129.387 426.021C129.503 425.635 129.503 425.222 129.387 424.835C129.271 424.449 129.045 424.104 128.735 423.845C128.409 423.612 128.022 423.478 127.622 423.458C127.221 423.438 126.823 423.534 126.476 423.734C126.253 423.876 126.061 424.063 125.913 424.282C125.765 424.501 125.664 424.749 125.616 425.009C125.568 425.269 125.574 425.536 125.634 425.794C125.693 426.051 125.805 426.294 125.963 426.506C126.143 426.742 126.295 426.825 126.309 426.811C126.323 426.798 126.198 426.673 126.06 426.437C125.865 426.101 125.774 425.716 125.796 425.328C125.796 425.045 125.872 424.767 126.016 424.523C126.159 424.279 126.366 424.079 126.614 423.942C126.907 423.764 127.247 423.679 127.59 423.699C127.932 423.719 128.26 423.842 128.531 424.052C128.801 424.263 129.001 424.551 129.105 424.877C129.208 425.204 129.21 425.555 129.109 425.883C129.036 426.153 128.894 426.4 128.698 426.599C128.501 426.798 128.256 426.943 127.987 427.019C127.61 427.124 127.212 427.124 126.836 427.019C126.531 427.075 126.392 426.936 126.379 426.936Z" fill="#E0E0E0"/>
    <path d="M122.719 346.289C122.01 345.827 121.511 345.105 121.329 344.278C121.147 343.452 121.297 342.587 121.746 341.87C122.195 341.153 122.907 340.641 123.73 340.443C124.552 340.246 125.42 340.379 126.145 340.814C126.871 341.249 127.397 341.952 127.609 342.771C127.822 343.59 127.705 344.46 127.284 345.193C126.862 345.927 126.17 346.465 125.355 346.694C124.54 346.922 123.668 346.821 122.927 346.414" fill="#823A3A"/>
    <path d="M134.918 492.89C136.722 490.173 137.68 486.981 137.67 483.719C137.661 480.456 136.684 477.27 134.864 474.563C133.044 471.856 130.462 469.749 127.444 468.509C124.427 467.27 121.109 466.952 117.912 467.598C114.714 468.243 111.779 469.822 109.479 472.135C107.179 474.448 105.616 477.391 104.988 480.593C104.36 483.794 104.695 487.109 105.952 490.12C107.208 493.13 109.329 495.701 112.046 497.506C113.851 498.705 115.874 499.537 118 499.954C120.127 500.371 122.314 500.365 124.438 499.937C126.562 499.508 128.581 498.665 130.379 497.456C132.177 496.247 133.72 494.696 134.918 492.89Z" fill="white"/>
    <path d="M134.918 492.89C134.052 493.932 133.126 494.922 132.145 495.857C129.385 498.315 125.881 499.779 122.192 500.015C119.489 500.176 116.788 499.657 114.337 498.504C111.887 497.351 109.764 495.602 108.164 493.417C106.264 490.846 105.173 487.767 105.032 484.573C104.872 481.144 105.81 477.753 107.71 474.894C109.609 472.035 112.371 469.856 115.594 468.674C117.113 468.102 118.713 467.775 120.335 467.703C121.89 467.602 123.452 467.743 124.965 468.119C127.783 468.811 130.363 470.248 132.436 472.278C134.263 474.022 135.65 476.174 136.484 478.557C137.715 482.033 137.739 485.822 136.553 489.314C136.082 490.579 135.526 491.81 134.89 493.001C135.115 492.729 135.315 492.437 135.486 492.128C135.729 491.777 135.942 491.406 136.124 491.019C136.396 490.502 136.628 489.964 136.817 489.411C137.911 486.412 138.119 483.161 137.416 480.047C136.713 476.932 135.129 474.086 132.852 471.848C130.705 469.746 128.034 468.258 125.117 467.537C121.901 466.747 118.523 466.936 115.414 468.078C112.02 469.285 109.107 471.557 107.109 474.554C105.111 477.552 104.134 481.114 104.325 484.712C104.493 488.036 105.636 491.237 107.61 493.916C109.397 496.317 111.789 498.201 114.541 499.378C117.486 500.605 120.722 500.96 123.863 500.4C127.004 499.839 129.917 498.387 132.256 496.217C132.691 495.824 133.094 495.398 133.462 494.942C133.752 494.626 134.017 494.288 134.252 493.93C134.521 493.616 134.745 493.266 134.918 492.89Z" fill="#E0E0E0"/>
    <path d="M125.115 542.168C123.457 543.644 122.087 544.325 121.08 544.345C120.066 544.343 118.725 543.674 117.104 542.199C115.501 540.739 113.702 538.562 111.783 535.713C108.032 530.143 103.86 522.068 99.822 511.952L142.349 511.952C138.552 522.092 134.369 530.147 130.552 535.699C128.601 538.537 126.754 540.708 125.115 542.168Z" fill="#823A3A" stroke="white"/>
    <path d="M121.084 544.844L121.943 544.747C122.751 544.508 123.514 544.138 124.203 543.651C126.767 541.661 128.983 539.258 130.759 536.54C135.611 529.609 141.239 518.52 145.799 503.965C148.232 495.944 149.985 487.732 151.039 479.416C151.585 474.755 151.872 470.067 151.898 465.374C151.898 460.536 151.898 455.546 151.898 450.417C151.898 429.902 151.898 407.155 151.898 382.994L151.898 382.578L90.0749 382.578L90.0749 382.924C90.0749 407.099 90.0749 429.846 90.1581 450.362C90.1581 455.491 90.1581 460.481 90.1581 465.319C90.1581 467.744 90.1581 470.129 90.1581 472.471C90.1581 474.814 90.4492 477.129 90.7126 479.402C91.7292 487.724 93.5347 495.93 96.1048 503.91C98.2792 510.415 100.872 516.772 103.867 522.942C106.08 527.629 108.642 532.142 111.533 536.443C113.283 539.174 115.459 541.608 117.979 543.651C118.464 543.929 118.852 544.22 119.24 544.386C119.564 544.533 119.897 544.658 120.238 544.76L121.084 544.857C121.084 544.857 120.806 544.857 120.252 544.691C119.921 544.582 119.597 544.453 119.282 544.303C118.859 544.075 118.452 543.821 118.062 543.541C115.589 541.469 113.456 539.023 111.741 536.291C108.918 532.009 106.416 527.524 104.255 522.873C101.305 516.697 98.7491 510.34 96.6038 503.84C94.0804 495.888 92.3122 487.715 91.3225 479.43C91.0591 477.184 90.8373 474.883 90.7958 472.499L90.7958 465.36C90.7958 460.527 90.7958 455.541 90.7958 450.403C90.7958 429.874 90.7958 407.141 90.7958 382.966L90.4353 383.326L151.566 383.326L151.219 382.966C151.219 407.127 151.219 429.874 151.289 450.389C151.289 455.518 151.289 460.509 151.289 465.346C151.275 470.02 151.001 474.689 150.471 479.333C149.45 487.618 147.734 495.802 145.342 503.799C140.864 518.423 135.306 529.512 130.551 536.443C128.807 539.158 126.64 541.578 124.133 543.61C123.461 544.096 122.718 544.475 121.929 544.733L121.084 544.844Z" fill="#E0E0E0"/>
    <path d="M130.19 475.34C129.272 475.97 128.434 476.711 127.695 477.544C126.24 478.931 124.299 481.065 122.151 483.38L116.828 489.355C116.04 490.134 115.329 490.988 114.707 491.905C115.62 491.274 116.453 490.533 117.188 489.701C118.657 488.315 120.598 486.194 122.733 483.865L128.056 477.891C128.847 477.111 129.562 476.257 130.19 475.34Z" fill="#E0E0E0"/>
    <path d="M125.339 475.314C123.413 476.802 121.635 478.473 120.03 480.304C118.253 481.987 116.651 483.844 115.248 485.849C117.173 484.359 118.95 482.688 120.557 480.858C122.331 479.174 123.933 477.316 125.339 475.314Z" fill="#E0E0E0"/>
</svg>
