<svg width="156" height="168" viewBox="0 0 156 168" fill="none" xmlns="http://www.w3.org/2000/svg">
    <path d="M21.8082 103.086C24.195 101.646 26.7637 100.531 29.446 99.7725L31.0124 92.2317L43.7652 91.9961L45.6504 99.4953C48.3527 100.157 50.9541 101.178 53.3853 102.531L59.831 98.3725L69.0075 107.244L65.0153 113.828C66.455 116.21 67.5692 118.775 68.3283 121.452L75.8691 123.033L76.1047 135.785L68.6055 137.615C67.9459 140.323 66.9248 142.929 65.5698 145.364L69.7283 151.81L60.8984 160.917L54.314 156.925C51.9291 158.359 49.3658 159.473 46.6901 160.238L45.1098 167.778L32.357 168L30.5272 160.515C27.8193 159.85 25.213 158.825 22.7785 157.465L16.3189 161.651L7.14244 152.794L11.1346 146.209C9.70036 143.82 8.58649 141.252 7.82167 138.572L0.28087 137.005L0.059082 124.252L7.54443 122.409C8.2126 119.708 9.23328 117.108 10.5802 114.674L6.42163 108.228L15.2793 99.0517L21.8636 103.044L21.8082 103.086ZM28.6143 120.066C26.7426 122.015 25.4901 124.475 25.0147 127.135C24.5393 129.795 24.8623 132.537 25.9429 135.014C27.0236 137.49 28.8135 139.592 31.0869 141.053C33.3604 142.513 36.0155 143.268 38.7174 143.222C41.4193 143.176 44.0469 142.33 46.269 140.792C48.491 139.254 50.2078 137.093 51.203 134.581C52.1981 132.068 52.4269 129.317 51.8606 126.675C51.2943 124.033 49.9582 121.617 48.0208 119.733C46.7275 118.476 45.1983 117.486 43.5211 116.822C41.844 116.158 40.052 115.832 38.2483 115.863C36.4447 115.894 34.665 116.281 33.0116 117.002C31.3582 117.724 29.8637 118.765 28.6143 120.066Z" fill="#EBEBEB"/>
    <path d="M89.9624 13.8407C92.8373 12.0993 95.933 10.7519 99.1666 9.83461L101.066 0.713572L116.466 0.450195L118.684 9.48806C121.948 10.29 125.09 11.5254 128.027 13.1614L135.817 8.0603L146.907 18.7616L142.083 26.7182C143.818 29.5961 145.165 32.691 146.089 35.9225L155.196 37.8215L155.473 53.2219L146.421 55.4398C145.626 58.7061 144.39 61.8491 142.748 64.7826L147.849 72.573L137.162 83.6624L129.205 78.8385C126.322 80.5742 123.223 81.9213 119.987 82.8445L118.088 91.9517L102.687 92.2289L100.47 83.1772C97.2049 82.3766 94.0625 81.1411 91.1268 79.5039L83.3503 84.605L72.2609 73.9037L77.0848 65.9471C75.341 63.0734 73.9935 59.9773 73.0788 56.7428L63.9577 54.8438L63.6943 39.4433L72.7322 37.2255C73.5451 33.9647 74.7799 30.8239 76.4056 27.8826L71.3044 20.1062L82.0057 9.01677L89.9624 13.8545V13.8407ZM98.1685 34.3145C95.8988 36.6651 94.377 39.6359 93.7954 42.8513C93.2139 46.0667 93.5988 49.3823 94.9014 52.379C96.204 55.3757 98.3659 57.9188 101.114 59.687C103.862 61.4552 107.072 62.3689 110.339 62.3127C113.606 62.2565 116.783 61.2329 119.469 59.3713C122.154 57.5097 124.227 54.8937 125.426 51.854C126.625 48.8142 126.895 45.4873 126.204 42.2938C125.512 39.1003 123.889 36.1837 121.539 33.9125C118.386 30.8688 114.153 29.2015 109.771 29.2769C105.389 29.3523 101.216 31.1642 98.1685 34.3145Z" fill="#EBEBEB"/>
</svg>
