<svg width="295" height="83" viewBox="0 0 295 83" fill="none" xmlns="http://www.w3.org/2000/svg">
    <g clip-path="url(#clip0_4015_280)">
        <path d="M287.994 15.2639C286.325 18.0588 284.656 20.8536 282.987 23.6485C281.861 25.5506 280.697 27.4138 279.649 29.3159C278.989 30.558 278.601 30.4804 277.941 29.3159C275.534 24.9683 273.05 20.6595 270.604 16.312C270.371 15.9238 270.138 15.5744 269.905 15.1863C269.168 15.5356 269.517 16.1179 269.517 16.5837C269.517 22.1346 269.44 27.7244 269.517 33.2753C269.517 34.6727 269.09 34.9833 267.77 34.9833C263.695 34.9833 263.695 34.9832 263.695 30.985C263.695 22.7557 263.695 14.5652 263.695 6.33583C263.695 4.78313 264.122 4.39495 265.713 4.20086C269.207 3.77387 271.264 4.93841 272.739 8.2379C274.447 12.042 276.776 15.5744 278.989 19.4562C281.745 14.7981 284.384 10.4505 286.869 6.02529C287.606 4.7055 288.421 4.23969 289.896 4.23969C294.361 4.31733 294.361 4.23968 294.361 8.66489C294.361 16.8166 294.361 24.9683 294.361 33.12C294.361 34.4786 294.166 35.0221 292.614 35.0221C288.499 34.9444 288.499 35.0221 288.499 30.8298C288.499 26.2881 288.499 21.7853 288.499 17.2436C288.499 16.6225 288.46 16.0402 288.421 15.4192L288.072 15.3027L287.994 15.2639Z" fill="#794945"/>
        <path d="M31.1782 74.1105C27.8011 74.1105 24.4628 74.0717 21.0856 74.1105C19.9987 74.1105 19.6106 73.8388 19.6494 72.7131C19.727 70.1899 19.6494 67.6668 19.6882 65.1436C19.6882 63.8627 19.4553 63.2804 17.9802 63.3192C16.6604 63.3192 16.1558 63.7074 16.2334 65.066C16.3499 67.5115 16.2334 69.9959 16.2722 72.4414C16.2722 73.6447 16.0393 74.1494 14.6807 74.1105C11.0707 74.0329 7.42178 74.0329 3.81174 74.1105C2.56957 74.1105 2.29785 73.6835 2.29785 72.5578C2.37548 68.2103 2.37548 63.9015 2.29785 59.5539C2.29785 58.2341 2.72484 57.9236 3.96701 57.9236C7.46059 57.9236 7.46059 57.8848 7.46059 61.4172C7.46059 63.4745 7.57705 65.5706 7.46059 67.628C7.34414 69.1419 8.19813 69.1419 9.24621 69.1031C10.2167 69.1031 11.1483 69.2971 11.0707 67.6668C10.9154 65.0272 11.0707 62.3488 10.993 59.7092C10.9542 58.3894 11.2648 57.8848 12.701 57.9236C16.2722 58.0012 19.8047 58.0012 23.3759 57.9236C24.4628 57.9236 24.8509 58.2729 24.8121 59.3598C24.7345 62.0771 24.8509 64.7943 24.7733 67.5115C24.7345 68.8313 25.2003 69.2195 26.4425 69.0642C26.9471 68.9866 27.4905 68.9866 27.9952 69.0642C29.0821 69.1807 29.4702 68.7537 29.4314 67.628C29.3538 64.9107 29.4314 62.1935 29.3926 59.4763C29.3926 58.3894 29.5479 57.8459 30.8289 57.8848C34.3224 57.9624 37.816 57.9624 41.3096 57.8848C42.3965 57.8848 42.7847 58.1953 42.7459 59.321C42.6294 63.9403 43.3281 62.9311 39.1358 63.0475C39.0582 63.0475 39.0194 63.0475 38.9417 63.0475C34.206 63.0475 34.2448 63.0475 34.4001 67.7833C34.4389 68.8313 34.8271 69.1031 35.7587 69.0642C37.5831 69.0254 39.3687 69.1031 41.1932 69.0642C42.3965 68.9866 42.7071 69.4524 42.7071 70.6169C42.7071 74.0717 42.7847 74.0717 39.2523 74.0717C36.535 74.0717 33.8178 74.0717 31.1006 74.0717L31.1782 74.1105Z" fill="#794945"/>
        <path d="M204.538 19.6878C204.538 15.1462 204.616 10.6433 204.538 6.10167C204.538 4.58778 205.004 4.23842 206.44 4.27723C211.991 4.35487 217.542 4.35487 223.132 4.27723C224.491 4.27723 224.918 4.66541 224.879 6.02403C224.762 9.78934 225.189 9.12945 221.851 9.16827C218.552 9.16827 215.252 9.20709 211.953 9.16827C210.788 9.16827 210.322 9.4788 210.361 10.6821C210.439 12.0408 210.439 13.3994 210.361 14.758C210.245 16.0778 210.71 16.5436 212.069 16.5436C215.679 16.466 219.328 16.5436 222.938 16.466C224.335 16.466 224.801 16.9318 224.646 18.2516C224.568 18.7562 224.607 19.2997 224.646 19.8043C224.762 20.9688 224.297 21.357 223.093 21.357C219.483 21.2794 215.834 21.357 212.224 21.3182C210.827 21.3182 210.245 21.6676 210.361 23.1426C210.477 24.8118 210.477 26.5198 210.361 28.1889C210.283 29.4699 210.71 29.8581 211.991 29.8581C215.601 29.7804 219.25 29.8581 222.86 29.8192C224.297 29.8192 224.918 30.091 224.879 31.7213C224.762 34.982 224.879 34.982 221.618 34.982C216.494 34.982 211.409 34.9432 206.285 34.982C204.965 34.982 204.5 34.7103 204.538 33.274C204.616 28.7324 204.538 24.2295 204.538 19.6878Z" fill="#794945"/>
        <path d="M186.644 22.0956C186.644 18.4856 186.567 14.8367 186.644 11.2267C186.644 9.82925 186.217 9.44107 184.898 9.5187C183.073 9.63515 181.288 9.51872 179.463 9.55753C178.493 9.55753 178.143 9.24698 178.105 8.23772C177.911 4.27833 177.872 4.27832 181.753 4.27832C187.576 4.27832 193.399 4.31714 199.221 4.27832C200.735 4.27832 201.24 4.62768 201.201 6.2192C201.123 9.59634 201.201 9.55752 197.824 9.59634C196.155 9.59634 194.059 8.85881 193.011 9.98452C192.04 10.9938 192.739 13.0899 192.739 14.6814C192.739 20.8146 192.7 26.9866 192.739 33.1198C192.739 34.4396 192.584 35.0607 190.992 35.0219C186.683 34.9443 186.683 35.0219 186.683 30.7131C186.683 27.8795 186.683 25.007 186.683 22.1733L186.644 22.0956Z" fill="#794945"/>
        <path d="M144.835 69.0242C144.835 72.0519 144.835 75.1185 144.835 78.1463C144.835 79.2332 144.68 79.8155 143.36 79.7767C138.43 79.699 133.539 79.7378 128.61 79.7767C127.639 79.7767 127.251 79.5049 127.251 78.4569C127.29 74.1869 127.29 69.917 127.251 65.647C127.251 64.5213 127.639 64.2496 128.726 64.2108C132.453 64.1332 132.453 64.0943 132.453 67.782C132.453 69.8005 132.491 71.7802 132.453 73.7988C132.453 74.7304 132.763 75.1185 133.695 75.0021C133.772 75.0021 133.811 75.0021 133.889 75.0021C135.674 74.8856 137.965 75.7396 139.129 74.6527C140.216 73.6435 139.44 71.3532 139.44 69.6064C139.479 66.2293 139.479 62.891 139.44 59.5138C139.44 58.3493 139.75 57.9611 140.954 57.9611C144.835 57.9223 144.835 57.8447 144.835 61.6488C144.835 64.0943 144.835 66.5787 144.835 69.0242Z" fill="#794945"/>
        <path d="M118.13 61.2228C118.13 65.027 118.091 68.831 118.13 72.6351C118.13 73.7996 117.859 74.149 116.616 74.149C112.773 74.149 112.773 74.1879 112.773 70.3062C112.773 63.5519 112.773 56.7588 112.773 50.0045C112.773 48.6459 113.2 48.2577 114.52 48.2966C118.13 48.3354 118.13 48.2965 118.13 51.7513C118.13 54.8955 118.13 58.0786 118.13 61.2228Z" fill="#794945"/>
        <path d="M100.313 52.6824C99.691 53.7693 98.7594 54.5845 97.789 55.2832C97.0902 55.7879 96.5468 55.1279 96.1586 54.6621C95.227 53.4588 94.4118 53.4588 93.4802 54.6621C92.3157 56.176 91.5393 55.0115 90.6853 54.1963C89.8313 53.3812 89.1326 52.6824 90.3748 51.5179C92.3157 49.6547 92.3157 49.4994 94.1013 51.285C95.1494 52.2943 95.4987 51.3627 96.081 50.8968C96.5856 50.4698 97.0126 49.5382 97.8278 50.0817C98.7982 50.7027 99.5746 51.5567 100.274 52.6824H100.313Z" fill="#794945"/>
        <path d="M254.418 75.9727C254.806 76.3221 255.272 76.6327 255.621 77.0985C256.359 78.1077 257.057 78.0689 257.717 77.0985C258.921 75.3905 259.813 76.2833 260.9 77.3314C262.104 78.4959 261.91 79.1946 260.823 80.2815C259.581 81.5625 258.571 81.9507 257.407 80.3591C256.63 79.2722 256.009 79.8545 255.466 80.5532C254.146 82.3 253.292 81.1355 252.244 80.165C251.002 79.0393 251.312 78.2242 252.438 77.3314C253.02 76.8656 253.409 76.0892 254.379 75.9727H254.418Z" fill="#794945"/>
        <path d="M14.0212 78.8475C13.4001 79.8568 12.5461 80.6719 11.6145 81.3318C10.8382 81.8753 10.2559 81.1377 9.8289 80.6331C8.97491 79.6238 8.27619 79.4686 7.4222 80.6331C6.18003 82.3411 5.32605 81.0601 4.35561 80.2061C3.15226 79.158 3.42398 78.4205 4.43324 77.3336C5.71422 76.0138 6.68466 75.548 7.92683 77.2948C8.85845 78.6146 9.4019 77.2948 10.023 76.8678C10.5664 76.4796 10.9546 75.548 11.7698 76.2467C12.6238 76.9842 13.5554 77.7218 14.0212 78.8863V78.8475Z" fill="#794945"/>
        <path d="M247.742 51.9836C247.043 53.0705 246.228 53.9245 245.258 54.5456C244.404 55.089 243.821 54.2738 243.356 53.6916C242.579 52.7599 241.919 52.7599 241.221 53.6916C239.94 55.4772 239.047 54.2738 237.999 53.3422C236.795 52.2553 237.145 51.5178 238.154 50.5085C239.319 49.344 240.25 48.6065 241.492 50.3532C242.424 51.7119 243.045 50.625 243.744 50.0039C244.248 49.5769 244.675 48.7229 245.491 49.4216C246.345 50.1592 247.237 50.9355 247.781 51.9448L247.742 51.9836Z" fill="#794945"/>
        <path d="M287.531 52.2558C287.531 52.7993 285.047 55.2059 284.542 55.0119C283.339 54.5072 282.407 53.6144 281.941 52.3723C281.747 51.79 284.076 49.4609 284.736 49.4609C285.241 49.4609 287.492 51.7512 287.492 52.2558H287.531Z" fill="#794945"/>
        <path d="M134.665 57.9232C134.005 57.9232 131.948 55.9047 131.948 55.206C131.948 54.5849 134.083 52.4111 134.665 52.4111C135.208 52.4111 137.46 54.6238 137.46 55.1672C137.46 55.6718 135.208 57.9232 134.665 57.9232Z" fill="#794945"/>
        <path d="M216.26 72.4412C216.183 68.8699 216.26 65.3375 216.26 61.7663C216.26 57.8069 216.26 57.8457 212.34 57.9622C211.214 57.9622 210.903 58.3504 210.903 59.4372C210.981 62.0768 210.903 64.7553 210.903 67.3949C210.903 68.4818 210.903 69.1805 209.428 69.1805C207.992 69.1805 207.682 68.5982 207.759 67.356C207.837 66.1915 207.759 65.027 207.759 63.8624C207.759 60.0583 207.759 60.0971 203.955 60.136C202.635 60.136 202.286 60.6406 202.363 61.8439C202.441 63.5907 202.363 65.3375 202.363 67.0843C202.363 68.1712 202.596 69.2193 200.811 69.1805C199.142 69.1805 199.064 68.4041 199.142 67.1619C199.219 65.9974 199.142 64.8329 199.142 63.6684C199.025 59.6313 199.957 60.2524 195.532 60.136C194.173 60.0971 193.901 60.6406 193.94 61.8439C194.018 63.7072 193.824 65.6092 194.018 67.4725C194.212 69.4134 193.008 69.1805 191.844 69.1417C190.679 69.1417 189.437 69.5686 189.476 67.4725C189.631 62.3097 189.515 57.1082 189.515 51.9454C189.515 48.2578 189.515 48.2966 185.827 48.2966C184.585 48.2966 184.158 48.6459 184.197 49.9269C184.274 55.439 184.236 60.9123 184.197 66.4244C184.197 69.4522 184.818 69.1028 181.402 69.2193C180.121 69.2581 179.888 68.7923 179.927 67.6666C180.005 65.8033 179.849 63.9013 179.966 62.038C180.043 60.6406 179.539 60.2912 178.219 60.3301C173.638 60.4077 169.019 60.3301 164.439 60.4077C163.041 60.4077 162.692 59.9807 162.731 58.6609C162.847 56.4095 162.731 54.1192 162.731 51.8678C162.731 48.3742 162.731 48.4907 159.276 48.3742C157.684 48.3354 157.374 48.8788 157.374 50.3539C157.451 56.0989 157.335 61.8827 157.451 67.6278C157.49 69.6075 156.326 69.2193 155.2 69.2581C154.113 69.2581 153.104 69.5298 153.143 67.7054C153.298 62.3486 153.22 56.9529 153.22 51.5961C153.22 48.2189 153.22 48.2966 149.843 48.2189C148.291 48.1801 147.902 48.6847 147.902 50.1986C147.98 57.6516 147.98 65.0658 147.902 72.5188C147.902 73.9938 148.329 74.3432 149.766 74.3432C160.518 74.2656 171.232 74.3432 181.984 74.3432C192.776 74.3432 203.606 74.3432 214.397 74.3432C215.717 74.3432 216.183 74.0327 216.144 72.6352L216.26 72.4412ZM173.716 69.1417C172.125 69.064 170.494 69.1417 168.903 69.1417C167.35 69.1417 165.797 69.064 164.283 69.1417C162.925 69.2193 162.808 68.5206 162.886 67.5113C162.964 66.6185 162.498 65.4928 164.167 65.5316C167.389 65.6092 170.611 65.5704 173.833 65.5316C175.54 65.5316 174.919 66.735 175.036 67.589C175.152 68.5206 175.036 69.2193 173.755 69.1417H173.716Z" fill="#794945"/>
        <path d="M108.892 51.9456C108.892 48.2191 108.892 48.2579 105.088 48.2579C103.768 48.2579 103.457 48.6849 103.496 49.9271C103.535 54.9734 103.496 60.0197 103.496 65.066C103.496 69.3359 103.496 69.2971 99.1099 69.1418C98.1395 69.1418 97.7513 68.8701 97.7901 67.822C97.8678 65.8811 97.7901 63.9402 97.7901 61.9994C97.7901 58.1564 97.7901 58.1952 93.986 58.234C92.7438 58.234 92.4333 58.7387 92.4721 59.8644C92.5498 61.5335 92.4721 63.2415 92.4721 64.9107C92.4721 69.3359 92.4721 69.2583 88.0081 69.1418C86.8436 69.1418 86.6107 68.676 86.6107 67.6279C86.6883 65.7647 86.533 63.8626 86.6495 61.9994C86.7659 60.4855 86.1837 60.1749 84.7862 60.2138C80.2057 60.2914 75.5865 60.2137 71.006 60.2914C69.725 60.2914 69.3368 59.942 69.3756 58.661C69.4921 56.332 69.3756 54.0029 69.3756 51.6739C69.3756 48.2967 69.3756 48.3744 66.0373 48.2579C64.407 48.2191 63.98 48.7237 64.0188 50.3153C64.1352 55.8662 64.0576 61.4559 64.0576 67.0068C64.0576 68.1326 64.407 69.2582 62.4273 69.2194C60.4088 69.1806 60.8746 67.9773 60.8746 66.9292C60.8746 64.4837 60.7969 61.9994 60.8746 59.5539C60.8746 58.3505 60.5252 58.0011 59.3219 58.0011C55.4401 58.0788 51.5583 58.04 47.6766 58.0011C46.7061 58.0011 46.3179 58.234 46.3179 59.2821C46.3568 63.8238 46.3568 68.3266 46.3179 72.8683C46.3179 73.9164 46.6673 74.1881 47.6766 74.1493C49.7339 74.0716 51.8301 74.2269 53.8874 74.1105C55.673 73.994 55.4401 75.0421 55.5177 76.1678C55.5954 77.4876 55.246 78.0699 53.8097 77.9534C52.5288 77.8369 51.209 77.9534 49.928 77.9534C46.1627 77.9534 46.2015 77.9534 46.3179 81.6799C46.3179 82.6892 46.6673 82.9997 47.6766 82.9997C51.636 82.9609 55.5565 82.9221 59.5159 82.9997C60.7193 82.9997 60.9134 82.4951 60.8746 81.4858C60.8357 79.6226 60.9522 77.7205 60.8357 75.8573C60.7581 74.4598 61.2627 74.1105 62.5825 74.1493C70.0355 74.1881 77.4497 74.1493 84.9027 74.1493C92.2004 74.1493 99.5369 74.0717 106.834 74.1881C108.504 74.1881 108.853 73.6835 108.814 72.1308C108.736 65.4153 108.814 58.661 108.814 51.9456H108.892ZM55.673 66.2693C55.673 66.8516 55.673 67.4338 55.673 68.0161C55.7118 68.8313 55.3624 69.103 54.5473 69.1418C51.5195 69.3747 51.5195 69.4135 51.5195 66.4634C51.5195 66.1917 51.5195 65.9588 51.5195 65.687C51.5195 64.3672 51.1313 63.0863 53.4604 63.1251C55.5177 63.2027 55.8671 63.9791 55.673 65.6482C55.673 65.8423 55.673 66.0364 55.673 66.2305V66.2693ZM80.361 69.1418C78.8471 69.0254 77.2944 69.1418 75.7417 69.1418C74.3443 69.1418 72.908 69.103 71.5106 69.1418C70.1908 69.2194 69.4144 69.0642 69.4533 67.3562C69.4533 65.687 70.1132 65.4541 71.5106 65.4929C74.4607 65.5706 77.4109 65.5706 80.3998 65.4929C82.069 65.4541 81.642 66.541 81.6808 67.4338C81.6808 68.2878 81.9525 69.2971 80.4387 69.1418H80.361Z" fill="#794945"/>
        <path d="M150.969 16.4657C150.969 22.3272 150.891 28.1886 151.007 34.0501C151.046 35.9133 150.619 36.612 148.678 36.3791C147.203 36.2239 145.689 36.2627 144.214 36.3791C143.011 36.4568 142.662 36.0298 142.662 34.8264C142.739 31.0223 142.662 27.2182 142.662 23.3752C142.662 16.6598 142.662 9.94432 142.662 3.19005C142.662 1.55971 143.516 0.744545 145.224 0.744545C146.388 0.744545 147.591 0.899815 148.717 0.744545C151.007 0.395186 152.172 1.44327 153.181 3.34533C156.015 8.70217 159.043 13.9814 161.993 19.2994C162.265 19.7652 162.381 20.3863 163.274 20.6968C163.274 18.6006 163.274 16.5433 163.274 14.5248C163.274 10.449 163.313 6.3731 163.274 2.29725C163.274 0.977451 163.701 0.628087 164.943 0.666905C166.69 0.74454 168.437 0.74454 170.183 0.666905C171.193 0.666905 171.542 1.01626 171.542 2.02552C171.542 13.0109 171.542 23.9963 171.542 34.9817C171.542 36.1462 171.037 36.3791 170.028 36.3403C168.087 36.3015 166.146 36.2627 164.205 36.3403C163.002 36.418 162.381 35.9521 161.799 34.9041C158.538 28.965 155.2 23.0647 151.9 17.1256C151.745 16.8539 151.551 16.5821 151.396 16.3492C151.279 16.3492 151.124 16.388 151.007 16.4269L150.969 16.4657Z" fill="#794945"/>
        <path d="M18.7571 10.4113C18.0584 10.4113 17.3209 10.4113 16.6222 10.4113C15.6517 10.4113 14.9142 10.4114 14.2155 9.36329C13.2062 7.77176 10.8771 7.84939 9.9067 9.20801C9.01389 10.4502 9.59616 11.9252 11.3818 12.7404C13.7108 13.8273 16.3116 14.2543 18.5242 15.6906C24.0751 19.223 25.7831 26.6759 22.0954 31.761C17.9808 37.3896 9.9067 38.6706 4.78277 34.5948C2.10435 32.4598 0.551644 29.7814 0.0470147 26.443C-0.147073 25.1232 0.241107 24.6963 1.56091 24.8127C2.6478 24.8903 3.77351 24.8127 4.86041 24.8127C6.52956 24.8127 8.1599 24.3857 8.78098 26.9088C9.20798 28.5392 11.0712 29.1215 12.8568 28.6945C14.4095 28.3063 15.5741 27.4911 15.7293 25.7055C15.8846 23.7646 14.6813 22.7554 13.0509 22.1343C11.0712 21.3579 9.01389 20.7757 7.11183 19.8052C2.72544 17.5538 0.396374 12.624 1.59972 7.92703C2.80307 3.07482 7.15064 -0.185869 12.1969 0.00821966C17.4373 0.16349 21.7073 3.65708 22.6777 8.43165C22.9882 9.86791 22.8718 10.6831 21.0862 10.4502C20.3098 10.3337 19.5335 10.4502 18.7571 10.4502V10.4113Z" fill="#794945"/>
        <path d="M92.7044 22.5997C92.7044 18.5238 92.7044 14.4479 92.7044 10.3721C92.7044 9.24638 92.4327 8.70295 91.1905 8.78058C89.9095 8.85822 88.5897 8.78058 87.3088 8.78058C86.2995 8.8194 85.7561 8.58648 85.7949 7.38313C85.8725 5.51989 85.8337 3.61782 85.7949 1.75457C85.7949 0.861768 86.1054 0.473587 87.037 0.512405C93.5196 0.512405 99.9633 0.512405 106.446 0.512405C107.338 0.512405 107.727 0.784143 107.727 1.71577C107.727 3.65665 107.727 5.59753 107.727 7.53841C107.727 8.47004 107.338 8.78058 106.446 8.78058C105.165 8.74176 103.845 8.85822 102.564 8.78058C101.128 8.66413 100.856 9.24638 100.856 10.5662C100.895 18.5238 100.856 26.4814 100.934 34.439C100.934 35.9917 100.545 36.4964 98.9929 36.3799C97.4402 36.2635 95.8875 36.2635 94.3348 36.3799C92.8985 36.4964 92.6268 35.9141 92.6656 34.6331C92.7432 30.6349 92.6656 26.5979 92.6656 22.5997H92.7044Z" fill="#794945"/>
        <path d="M62.8145 18.4458C62.8145 13.1666 62.8533 7.84864 62.8145 2.56944C62.8145 1.17201 63.0862 0.512097 64.6001 0.667368C66.6963 0.900274 69.4134 -0.225433 70.7332 1.13319C71.9365 2.37535 71.0438 5.05375 71.0438 7.11109C71.0438 13.516 71.1215 19.8821 71.0438 26.287C71.0438 27.8785 71.5096 28.2279 72.9847 28.1891C76.1289 28.0726 79.312 28.1891 82.495 28.1503C83.776 28.1503 84.1642 28.5384 84.1254 29.7806C84.0477 31.5274 84.0866 33.2742 84.1254 35.021C84.1254 35.9526 83.9701 36.4184 82.8832 36.4184C76.6724 36.3796 70.5004 36.3408 64.2896 36.4184C62.9309 36.4184 62.8921 35.7585 62.8921 34.7493C62.8921 29.3148 62.8921 23.9191 62.8921 18.4847L62.8145 18.4458Z" fill="#794945"/>
        <path d="M42.5916 0.707173C32.8096 0.745991 24.8519 8.78125 24.8908 18.5245C24.8908 28.2677 32.9648 36.303 42.7081 36.2641C52.5289 36.2641 60.603 28.1124 60.5254 18.3304C60.4477 8.58716 52.3737 0.668356 42.6304 0.707173H42.5916ZM42.7081 28.0736C37.39 28.0736 33.0813 23.8037 33.0813 18.5245C33.0813 13.2065 37.39 8.93652 42.7081 8.93652C47.9484 8.93652 52.1407 13.1677 52.2184 18.408C52.2572 23.7649 48.0649 28.0348 42.7081 28.0736Z" fill="#794945"/>
        <path d="M139.906 34.9036C136.296 23.9183 132.802 12.9329 129.27 1.90865C128.998 1.01585 128.533 0.666486 127.601 0.666486C125.854 0.705303 124.107 0.744121 122.361 0.666486C121.312 0.627668 120.885 1.05467 120.575 1.98629C116.848 12.9717 113.122 23.9959 109.318 34.9813C108.968 35.9905 109.085 36.4175 110.249 36.3399C111.686 36.2623 113.122 36.1458 114.519 36.3399C116.848 36.6893 118.207 35.9129 118.556 33.545C118.751 32.264 119.488 31.9535 120.73 31.9923C123.37 32.07 126.048 32.07 128.688 31.9923C129.814 31.9923 130.396 32.264 130.784 33.4286C131.754 36.3399 131.832 36.3399 135.015 36.3011C135.287 36.3011 135.52 36.3011 135.791 36.3011C136.762 36.3011 137.732 36.2622 138.703 36.3011C139.867 36.3787 140.333 36.2234 139.867 34.826L139.906 34.9036ZM127.135 23.763C125.544 23.8018 123.952 23.8406 122.361 23.7242C121.934 23.7242 122.205 23.0643 122.322 22.7149C123.098 20.3858 123.913 18.0956 124.69 15.8054C124.845 15.8054 124.961 15.8054 125.117 15.8442C125.854 18.1732 126.63 20.4635 127.368 22.7925C127.368 22.8702 127.368 22.909 127.407 22.9866C127.407 23.2972 127.562 23.763 127.174 23.8018L127.135 23.763Z" fill="#794945"/>
        <path d="M261.676 61.8422C261.676 57.8052 261.676 57.844 257.639 57.9604C256.513 57.9604 256.242 58.3874 256.242 59.4355C256.281 62.2304 256.242 64.9864 256.242 67.7813C256.242 68.7518 256.009 69.1787 254.961 69.1399C253.408 69.0623 251.855 69.0623 250.303 69.1399C249.06 69.2176 248.789 68.7129 248.828 67.5872C248.905 64.87 248.828 62.1528 248.866 59.4355C248.866 58.3874 248.633 57.9604 247.469 57.9604C243.898 58.0381 240.365 58.0381 236.794 57.9604C235.552 57.9604 235.241 58.3874 235.28 59.552C235.358 61.8034 235.28 64.0548 235.28 66.3451C235.28 69.2176 235.28 69.1787 232.33 69.1787C231.127 69.1787 230.777 68.7906 230.816 67.626C230.894 65.6851 230.816 63.7443 230.816 61.8034C230.816 57.844 230.816 57.9216 226.934 57.9604C225.77 57.9604 225.382 58.3098 225.382 59.5131C225.459 63.7831 225.498 68.053 225.382 72.323C225.343 73.9533 225.925 74.225 227.361 74.1862C232.718 74.1086 238.075 74.1862 243.432 74.1862C248.905 74.1862 254.417 74.1086 259.891 74.1862C261.172 74.1862 261.56 73.8369 261.521 72.5559C261.443 69.0235 261.521 65.4522 261.521 61.881L261.676 61.8422ZM241.607 69.1787C238.696 69.2176 240.21 67.1214 239.783 66.151C239.783 65.6852 239.822 65.3358 239.783 65.0252C239.434 63.162 240.482 63.0455 241.996 62.9679C243.742 62.8903 244.092 63.6278 243.898 65.1029C243.82 65.6851 243.82 66.2674 243.898 66.8497C244.208 68.7129 243.471 69.1787 241.607 69.2175V69.1787Z" fill="#794945"/>
        <path d="M259.504 32.9244C255.234 23.8799 250.925 14.8742 246.694 5.79088C246.034 4.35462 245.102 4.16054 243.782 4.23817C242.463 4.31581 241.182 3.96645 240.483 5.79088C239.396 8.54693 237.999 11.1865 236.718 13.8649C233.612 20.3863 230.546 26.9465 227.44 33.4679C226.897 34.6324 227.052 34.9429 228.411 34.9818C233.224 35.0206 233.224 35.0982 235.32 30.673C235.398 30.4789 235.514 30.3236 235.592 30.1684C235.902 29.1203 236.524 28.8097 237.61 28.8485C240.91 28.9262 244.209 29.1203 247.47 28.8097C250.381 28.4992 251.934 29.5861 252.633 32.2645C253.215 34.3995 254.38 35.6805 256.476 35.0206C257.291 35.0206 257.718 35.0206 258.184 35.0206C260.435 35.0206 260.435 35.0206 259.504 33.0409V32.9244ZM247.587 23.8799C244.947 23.8799 242.307 23.8799 239.668 23.8799C238.659 23.8799 238.62 23.4529 238.969 22.6766C240.444 19.5323 241.919 16.4269 243.627 12.8557C245.296 16.4657 246.771 19.6488 248.246 22.8706C248.596 23.647 248.363 23.9187 247.548 23.8799H247.587Z" fill="#794945"/>
        <path d="M291.528 59.5536C291.528 58.4279 291.256 57.9232 290.014 57.962C286.521 58.0397 283.027 58.0397 279.533 57.962C278.175 57.962 277.942 58.4667 277.942 59.67C278.019 62.3872 277.903 65.1045 277.981 67.8217C278.058 69.685 276.738 69.0639 275.846 69.1027C274.953 69.1027 273.672 69.6073 273.75 67.7829C273.866 65.842 273.75 63.9011 273.75 61.9603C273.75 58.389 273.75 58.4667 270.256 58.3502C268.626 58.3114 268.354 58.8937 268.354 60.3299C268.431 65.4538 268.354 70.539 268.393 75.6629C268.393 77.0991 268.16 77.7202 266.529 77.6814C262.997 77.6038 262.997 77.6814 263.075 81.2526C263.075 81.4467 263.075 81.6408 263.075 81.8349C262.997 82.7277 263.424 82.9218 264.239 82.9218C267.034 82.9218 269.79 82.883 272.585 82.9218C273.555 82.9218 273.827 82.5724 273.788 81.6796C273.75 79.8164 273.905 77.9143 273.75 76.0511C273.633 74.3819 274.254 73.9549 275.807 74.0713C278.058 74.1878 280.349 74.0713 282.6 74.0713C285.007 74.0713 287.375 74.0325 289.781 74.0713C290.985 74.0713 291.528 73.8773 291.489 72.5186C291.412 68.1711 291.412 63.8623 291.489 59.5147L291.528 59.5536ZM285.861 69.1415C282.949 69.5685 282.6 69.2968 282.6 66.0749C282.6 65.8032 282.6 65.5703 282.6 65.2986C282.6 63.2412 284.269 62.1932 286.249 63.0472C286.676 63.2412 286.792 63.5518 286.792 63.9788C286.792 65.415 286.792 66.8124 286.792 68.2487C286.792 68.8698 286.521 69.1027 285.861 69.2191V69.1415Z" fill="#794945"/>
    </g>
    <defs>
        <clipPath id="clip0_4015_280">
            <rect width="295" height="83" fill="white"/>
        </clipPath>
    </defs>
</svg>
