<svg width="800" height="800" viewBox="0 0 800 800" fill="none" xmlns="http://www.w3.org/2000/svg">
    <g clip-path="url(#clip0_232_526)">
        <path d="M352.513 799.488C277.628 794.091 203.615 775.241 158.223 750.007C132.368 735.635 112.67 717.971 104.941 702.228L100.342 692.861V399.054V105.248L103.981 97.8588C120.243 64.8416 172.144 35.0765 244.595 17.217C269.189 11.1542 304.694 5.1165 333.659 2.07193C363.235 -1.03778 441.632 -0.564661 471.135 2.9062C549.549 12.1188 616.275 32.7434 657.395 60.4794C673.253 71.1754 689.525 88.2901 695.037 100.071L699.764 110.171L699.359 403.089L698.954 696.008L695.16 703.716C693.074 707.955 686.771 716.295 681.154 722.248C646.962 758.494 573.621 785.307 477.42 796.731C457.813 799.06 372.629 800.939 352.513 799.488ZM490.513 547.735C490.225 546.984 479.03 537.012 465.636 525.573C452.242 514.134 440.706 504.237 440.001 503.58C439.296 502.923 441.77 500.597 445.5 498.411C449.23 496.224 456.376 490.142 461.38 484.894C476.014 469.549 482.919 450.593 482.919 425.764C482.919 401.321 475.472 381.599 460.557 366.544C445.524 351.369 428.264 344.849 403.129 344.849C364.386 344.849 334.63 367.456 325.133 404.107C321.866 416.714 321.884 442.188 325.167 453.367C333.732 482.525 357.058 503.702 386.089 508.675C395.913 510.358 397.243 511.083 403.941 518.406C407.922 522.757 416.09 531.444 422.093 537.709L433.007 549.1H462.022C477.98 549.1 490.801 548.486 490.513 547.735ZM391.009 466.496C384.024 462.854 381.384 460.027 377.4 451.93C374.324 445.675 373.798 442.118 373.763 427.336C373.729 412.315 374.207 409.069 377.419 402.547C382.675 391.874 389.917 386.821 401.12 386.011C416.715 384.88 425.717 392.533 430.435 410.927C436.219 433.478 429.858 457.453 415.98 465.41C408.699 469.584 397.839 470.057 391.009 466.496ZM262.402 508.355C292.823 502.586 310.091 484.895 310.091 459.499C310.091 436.969 298.943 423.841 268.13 410.085C250.491 402.211 244.102 397.269 244.102 391.494C244.102 386.707 250.165 381.462 257.224 380.145C264.115 378.858 282.394 382.033 293.188 386.393L302.236 390.048V370.02V349.992L292.416 347.813C286.347 346.467 273.594 345.659 259.028 345.701C238.397 345.701 234.357 346.203 226.592 349.287C203.913 358.29 193.151 373.627 193.323 396.698C193.484 418.296 204.878 431.768 233.235 443.888C249.966 451.039 256.672 456.484 256.672 462.919C256.672 476.593 233.888 478.276 209.765 466.383C203.159 463.127 197.223 460.196 196.575 459.872C195.927 459.547 195.397 468.903 195.397 480.662C195.397 501.947 195.42 502.049 199.273 503.517C213.785 509.034 245.859 511.492 262.402 508.355ZM610.183 488.61V470.542H582.688H555.192V408.481V346.42H530.839H506.486V426.549V506.679H558.334H610.183V488.61ZM440.497 171.981C488.891 168.625 525.167 162.287 557.089 151.614C588.891 140.981 607.677 128.115 611.879 114.09C613.498 108.685 613.382 106.635 611.12 100.71C600.974 74.1439 544.297 53.7332 457.692 45.4578C420.646 41.9172 353.272 43.065 317.949 47.8364C264.052 55.1187 220.311 68.6453 200.862 84.0453C161.519 115.2 203.125 149.465 299.879 165.593C341.832 172.586 396.184 175.056 440.497 171.981Z" fill="#794945"/>
    </g>
    <defs>
        <clipPath id="clip0_232_526">
            <rect width="800" height="800" fill="white"/>
        </clipPath>
    </defs>
</svg>
