<svg width="85" height="85" viewBox="0 0 85 85" fill="none" xmlns="http://www.w3.org/2000/svg">
    <g clip-path="url(#clip0_31_2348)">
        <path d="M39.8183 61.0166C39.14 61.0166 38.5903 61.5664 38.5903 62.2446C38.5903 62.9227 39.14 63.4725 39.8183 63.4725H45.7125C46.3908 63.4725 46.9405 62.9227 46.9405 62.2446C46.9405 61.5664 46.3908 61.0166 45.7125 61.0166H39.8183Z" fill="#794945"/>
        <path d="M15.5868 41.9495H23.7038C24.1996 43.2398 25.4487 44.1598 26.9114 44.1598C28.3742 44.1598 29.6233 43.2398 30.119 41.9495H31.7414C32.4197 41.9495 32.9694 41.3997 32.9694 40.7215C32.9694 40.0433 32.4197 39.4935 31.7414 39.4935H30.119C29.6233 38.2032 28.3742 37.2832 26.9114 37.2832C25.4487 37.2832 24.1996 38.2032 23.7038 39.4935H15.5868C14.9085 39.4935 14.3589 40.0433 14.3589 40.7215C14.3589 41.3997 14.9085 41.9495 15.5868 41.9495ZM26.9114 39.7391C27.4532 39.7391 27.8938 40.1797 27.8938 40.7215C27.8938 41.2633 27.4532 41.7039 26.9114 41.7039C26.3697 41.7039 25.9291 41.2633 25.9291 40.7215C25.9291 40.1797 26.3697 39.7391 26.9114 39.7391Z" fill="#794945"/>
        <path d="M15.5868 34.9094H17.1547C17.6505 36.1998 18.8996 37.1197 20.3623 37.1197C21.8251 37.1197 23.0741 36.1998 23.5699 34.9094H31.7414C32.4197 34.9094 32.9694 34.3596 32.9694 33.6815C32.9694 33.0033 32.4197 32.4535 31.7414 32.4535H23.5699C23.0741 31.1632 21.8251 30.2432 20.3623 30.2432C18.8996 30.2432 17.6505 31.1632 17.1547 32.4535H15.5868C14.9085 32.4535 14.3589 33.0033 14.3589 33.6815C14.3589 34.3596 14.9085 34.9094 15.5868 34.9094ZM20.3623 32.6991C20.9041 32.6991 21.3447 33.1397 21.3447 33.6815C21.3447 34.2232 20.9041 34.6638 20.3623 34.6638C19.8205 34.6638 19.3799 34.2232 19.3799 33.6815C19.3799 33.1397 19.8205 32.6991 20.3623 32.6991Z" fill="#794945"/>
        <path d="M31.9868 23.6122C32.6649 23.6122 33.2147 23.0624 33.2147 22.3842C33.2147 21.706 32.6649 21.1562 31.9868 21.1562C31.3086 21.1562 30.7588 21.706 30.7588 22.3842C30.7588 23.0624 31.3086 23.6122 31.9868 23.6122Z" fill="#794945"/>
        <path d="M28.603 23.6122C29.2811 23.6122 29.8309 23.0624 29.8309 22.3842C29.8309 21.706 29.2811 21.1562 28.603 21.1562C27.9248 21.1562 27.375 21.706 27.375 22.3842C27.375 23.0624 27.9248 23.6122 28.603 23.6122Z" fill="#794945"/>
        <path d="M25.2192 23.6122C25.8974 23.6122 26.4471 23.0624 26.4471 22.3842C26.4471 21.706 25.8974 21.1562 25.2192 21.1562C24.541 21.1562 23.9912 21.706 23.9912 22.3842C23.9912 23.0624 24.541 23.6122 25.2192 23.6122Z" fill="#794945"/>
        <path d="M80.996 8.45881H80.5361L80.8791 8.11579C81.9065 7.0884 81.9065 5.41657 80.8791 4.38918L78.191 1.70109C77.1637 0.673856 75.492 0.673856 74.4644 1.70109L67.7072 8.45864H4.53496C2.50375 8.45864 0.851074 10.1112 0.851074 12.1425V63.138C0.851074 65.6207 2.87083 67.6405 5.3536 67.6405H34.4391V76.3271H28.5211C26.9413 76.3271 25.6559 77.6125 25.6559 79.1923V80.4193C25.6559 81.9991 26.9413 83.2846 28.5211 83.2846H57.0099C58.5897 83.2846 59.8751 81.9991 59.8751 80.4193V79.1923C59.8751 77.6125 58.5897 76.3271 57.0099 76.3271H51.0919V67.6405H64.2139C64.8922 67.6405 65.4419 67.0907 65.4419 66.4125C65.4419 65.7344 64.8922 65.1846 64.2139 65.1846H5.3536C4.22502 65.1846 3.307 64.2665 3.307 63.138V59.5032H82.224V63.138C82.224 64.2665 81.306 65.1846 80.1774 65.1846H69.9444C69.2661 65.1846 68.7164 65.7344 68.7164 66.4125C68.7164 67.0907 69.2661 67.6405 69.9444 67.6405H80.1774C82.6602 67.6405 84.6799 65.6207 84.6799 63.138V12.1427C84.6799 10.1115 83.0273 8.45881 80.996 8.45881V8.45881ZM57.0099 78.7832C57.2356 78.7832 57.4192 78.9669 57.4192 79.1925V80.4195C57.4192 80.6451 57.2356 80.8288 57.0099 80.8288H28.5211C28.2954 80.8288 28.1118 80.6451 28.1118 80.4195V79.1925C28.1118 78.9669 28.2954 78.7832 28.5211 78.7832H57.0099ZM36.895 67.6408H48.6361V76.3274H36.895V67.6408ZM76.2011 3.43792C76.2712 3.368 76.3848 3.36817 76.4545 3.43792L79.1425 6.12584C79.2124 6.19575 79.2124 6.30955 79.1425 6.37929L76.5777 8.9441L73.6363 6.00272L76.2011 3.43792ZM71.8996 7.73938L74.8408 10.6808L73.9844 11.5372L71.0432 8.59585L71.8996 7.73938ZM69.3065 10.3325L72.2479 13.2739L57.7168 27.8049L54.7755 24.8636L69.3065 10.3325ZM67.4885 21.5592C69.1587 21.5592 70.5174 22.918 70.5174 24.5882C70.5174 26.2584 69.1587 27.6171 67.4885 27.6171C65.8183 27.6171 64.4595 26.2584 64.4595 24.5882C64.4595 24.5687 64.4621 24.5499 64.4624 24.5304L67.4312 21.5621C67.4503 21.5618 67.4691 21.5592 67.4885 21.5592ZM55.5844 29.1459L51.9502 30.6302L53.4345 26.9959L55.5844 29.1459ZM82.224 57.0476H3.307V12.1427C3.307 11.4657 3.85778 10.9147 4.53496 10.9147H65.2514L63.379 12.7871H21.6446C20.9662 12.7871 20.4166 13.3369 20.4166 14.0151C20.4166 14.6932 20.9662 15.243 21.6446 15.243H60.9233L52.2619 23.9049C52.0171 24.1518 51.8257 24.44 51.6939 24.7625L48.951 31.478C48.6993 32.0948 48.8411 32.7977 49.3122 33.2685C49.6283 33.5847 50.0488 33.7524 50.4776 33.7524C50.6878 33.7524 50.8998 33.7121 51.1027 33.6294L57.818 30.8866C58.1314 30.7586 58.4117 30.5732 58.654 30.3383L62.3896 26.6032C63.1944 28.6332 65.1755 30.0732 67.4886 30.0732C70.513 30.0732 72.9735 27.6127 72.9735 24.5883C72.9735 22.2755 71.5339 20.2946 69.5041 19.4897L73.7511 15.2432H77.8957V52.7194H77.2449L72.7947 45.0116C72.4558 44.4242 71.7043 44.2229 71.1173 44.5622C70.53 44.9013 70.3288 45.6523 70.6679 46.2396L74.4091 52.7194H57.2553L55.4155 49.5328L63.9924 34.6773L67.8025 41.2768C68.1417 41.8641 68.8928 42.0655 69.4799 41.7262C70.0672 41.3872 70.2684 40.6361 69.9293 40.0489L65.8644 33.0084C65.4736 32.3315 64.7738 31.9274 63.9922 31.9274C63.2106 31.9274 62.5106 32.3315 62.1198 33.0084L53.9973 47.0771L43.5753 29.0259C43.1845 28.349 42.4847 27.9449 41.7029 27.9449C40.9214 27.9449 40.2215 28.349 39.8307 29.0259L37.0619 33.8216V20.659C37.0619 19.0792 35.7764 17.7938 34.1966 17.7938H13.1307C11.5509 17.7938 10.2654 19.0792 10.2654 20.659V47.5104C10.2654 48.639 11.1835 49.557 12.312 49.557H27.9774L26.1515 52.7196H7.63548V15.243H15.9141C16.5924 15.243 17.142 14.6932 17.142 14.0151C17.142 13.3369 16.5924 12.7871 15.9141 12.7871H7.22616C6.09758 12.7871 5.17956 13.7051 5.17956 14.8337V53.1286C5.17956 54.2572 6.09758 55.1752 7.22616 55.1752H78.305C79.4336 55.1752 80.3516 54.2572 80.3516 53.1286V14.8337C80.3516 13.7051 79.4336 12.7871 78.305 12.7871H76.2073L78.08 10.9147H80.996C81.6732 10.9147 82.224 11.4657 82.224 12.1427V57.0476ZM34.6064 27.4596V47.1008H12.7214V27.4596H34.6064ZM12.7214 25.0037V20.6587C12.7214 20.4331 12.9049 20.2494 13.1307 20.2494H34.1971C34.4229 20.2494 34.6064 20.4331 34.6064 20.6587V25.0037H12.7214ZM30.8133 49.5567H35.0158C36.1443 49.5567 37.0624 48.6387 37.0624 47.5101V44.909C37.3695 45.0563 37.7115 45.1361 38.0698 45.1361C38.9081 45.1361 39.6586 44.7025 40.0776 43.9767L42.1674 40.3572C42.2306 40.2478 42.3272 40.2247 42.3968 40.2247C42.4667 40.2247 42.5633 40.2478 42.6263 40.3572L43.9147 42.5886C44.3339 43.3147 45.0845 43.7481 45.923 43.7481C46.7613 43.7481 47.512 43.3147 47.931 42.5888L48.2509 42.0347L54.4195 52.7191H28.9874L30.8133 49.5567ZM37.0624 40.7984V38.7331L41.7036 30.6946L46.8328 39.5788L45.9228 41.1548L44.7532 39.129C44.2613 38.2772 43.3805 37.7686 42.3966 37.7686C41.4129 37.7686 40.5321 38.2772 40.0402 39.129L38.0693 42.5428L37.0624 40.7984Z" fill="#794945"/>
    </g>
    <defs>
        <clipPath id="clip0_31_2348">
            <rect width="83.8288" height="83.8288" fill="white" transform="translate(0.851074 0.193359)"/>
        </clipPath>
    </defs>
</svg>
