<svg width="85" height="85" viewBox="0 0 85 85" fill="none" xmlns="http://www.w3.org/2000/svg">
    <path d="M78.3929 10.0137H6.35246C5.13701 10.015 3.97174 10.4984 3.11229 11.3579C2.25284 12.2173 1.76941 13.3826 1.76807 14.5981V60.442C1.76941 61.6574 2.25284 62.8227 3.11229 63.6821C3.97174 64.5416 5.13701 65.025 6.35246 65.0264H32.5784L31.0067 68.9558H24.0351C23.6877 68.9558 23.3546 69.0938 23.1089 69.3395C22.8633 69.5851 22.7253 69.9183 22.7253 70.2657V72.8853H14.8663C14.5189 72.8853 14.1858 73.0233 13.9401 73.269C13.6945 73.5146 13.5565 73.8478 13.5565 74.1951C13.5565 74.5425 13.6945 74.8757 13.9401 75.1213C14.1858 75.367 14.5189 75.505 14.8663 75.505H69.879C70.2264 75.505 70.5596 75.367 70.8052 75.1213C71.0508 74.8757 71.1888 74.5425 71.1888 74.1951C71.1888 73.8478 71.0508 73.5146 70.8052 73.269C70.5596 73.0233 70.2264 72.8853 69.879 72.8853H62.0201V70.2657C62.0201 69.9183 61.8821 69.5851 61.6364 69.3395C61.3908 69.0938 61.0576 68.9558 60.7102 68.9558H53.7387L52.1669 65.0264H78.3929C79.6083 65.025 80.7736 64.5416 81.633 63.6821C82.4925 62.8227 82.9759 61.6574 82.9773 60.442V14.5981C82.9759 13.3826 82.4925 12.2173 81.633 11.3579C80.7736 10.4984 79.6083 10.015 78.3929 10.0137ZM59.4004 71.5755V72.8853H25.3449V71.5755H59.4004ZM33.8293 68.9558L35.4011 65.0264H49.3442L50.916 68.9558H33.8293ZM80.3576 60.442C80.3572 60.9629 80.15 61.4624 79.7817 61.8308C79.4133 62.1991 78.9138 62.4063 78.3929 62.4067H6.35246C5.83151 62.4063 5.33202 62.1991 4.96366 61.8308C4.59529 61.4624 4.38815 60.9629 4.38772 60.442V57.1674H80.3576V60.442ZM80.3576 54.5478H4.38772V14.5981C4.38815 14.0771 4.59529 13.5776 4.96366 13.2093C5.33202 12.8409 5.83151 12.6338 6.35246 12.6333H78.3929C78.9138 12.6338 79.4133 12.8409 79.7817 13.2093C80.15 13.5776 80.3572 14.0771 80.3576 14.5981V54.5478Z" fill="#794945"/>
    <path d="M36.4145 43.8545C36.5583 43.9489 36.7193 44.014 36.8883 44.0462C37.0573 44.0784 37.2309 44.0769 37.3994 44.0419C37.5678 44.007 37.7277 43.9392 37.8699 43.8424C38.0121 43.7456 38.1339 43.6218 38.2283 43.478L48.5431 27.7601C48.7338 27.4696 48.8012 27.1154 48.7307 26.7752C48.6601 26.4351 48.4573 26.1369 48.1669 25.9463C47.8765 25.7556 47.5222 25.6882 47.1821 25.7588C46.8419 25.8293 46.5437 26.0321 46.3531 26.3225L36.0382 42.0404C35.9438 42.1842 35.8786 42.3453 35.8464 42.5143C35.8142 42.6833 35.8156 42.857 35.8505 43.0254C35.8855 43.1939 35.9533 43.3538 36.05 43.4961C36.1468 43.6383 36.2706 43.7602 36.4145 43.8545Z" fill="#794945"/>
    <path d="M50.7032 43.7653C50.97 43.9877 51.3143 44.0949 51.6603 44.0634C52.0062 44.032 52.3255 43.8643 52.5479 43.5975L59.097 35.7385C59.2931 35.5031 59.4005 35.2064 59.4005 34.9001C59.4005 34.5937 59.2931 34.297 59.097 34.0616L52.5479 26.2026C52.4381 26.0694 52.3031 25.9592 52.1506 25.8783C51.9981 25.7974 51.8311 25.7474 51.6592 25.7313C51.4874 25.7152 51.314 25.7332 51.1491 25.7843C50.9842 25.8354 50.831 25.9186 50.6984 26.0291C50.5658 26.1396 50.4563 26.2753 50.3763 26.4282C50.2963 26.5812 50.2473 26.7485 50.2321 26.9204C50.217 27.0924 50.2359 27.2657 50.288 27.4303C50.34 27.5949 50.4241 27.7476 50.5353 27.8796L56.3857 34.9001L50.5353 41.9206C50.313 42.1874 50.2057 42.5317 50.2372 42.8777C50.2687 43.2236 50.4363 43.5429 50.7032 43.7653Z" fill="#794945"/>
    <path d="M32.1974 43.5975C32.3071 43.7307 32.4422 43.8409 32.5947 43.9218C32.7472 44.0027 32.9142 44.0527 33.086 44.0688C33.2579 44.0849 33.4313 44.0669 33.5962 44.0158C33.7611 43.9647 33.9142 43.8815 34.0469 43.771C34.1795 43.6605 34.289 43.5248 34.369 43.3719C34.449 43.2189 34.498 43.0516 34.5132 42.8797C34.5283 42.7077 34.5093 42.5344 34.4573 42.3698C34.4052 42.2052 34.3212 42.0526 34.2099 41.9206L28.3596 34.9001L34.2099 27.8795C34.3212 27.7475 34.4052 27.5949 34.4573 27.4303C34.5093 27.2657 34.5283 27.0924 34.5132 26.9204C34.498 26.7485 34.449 26.5812 34.369 26.4282C34.289 26.2753 34.1795 26.1396 34.0469 26.0291C33.9142 25.9186 33.7611 25.8354 33.5962 25.7843C33.4313 25.7332 33.2579 25.7152 33.086 25.7313C32.9142 25.7474 32.7472 25.7974 32.5947 25.8783C32.4422 25.9592 32.3071 26.0694 32.1974 26.2026L25.6483 34.0616C25.4521 34.297 25.3447 34.5937 25.3447 34.9001C25.3447 35.2064 25.4521 35.5031 25.6483 35.7385L32.1974 43.5975Z" fill="#794945"/>
</svg>
