<svg width="800" height="800" viewBox="0 0 800 800" fill="none" xmlns="http://www.w3.org/2000/svg">
  <g clip-path="url(#clip0_232_545)">
    <path d="M433.333 537.334H369.999L308.999 437.334L248.333 537.334H188.666L275.666 404L194.333 275.667H255.666L311.999 370L366.666 275.667H426.333L344.333 405.667L433.333 537.334Z" fill="#794945"/>
    <path d="M488.333 541C477.618 541.36 466.982 539.051 457.381 534.279C447.781 529.508 439.517 522.425 433.333 513.667C418.799 491.085 411.797 464.477 413.333 437.667C411.705 410.591 418.834 383.71 433.667 361C440.064 352.118 448.549 344.948 458.374 340.123C468.199 335.298 479.061 332.966 490 333.333C501.312 332.925 512.541 335.404 522.63 340.536C532.719 345.668 541.335 353.284 547.667 362.667H549.333C546.842 349.475 545.504 336.091 545.333 322.667V259H600V537.333H558L547.667 511.667H545.333C539.353 521.235 530.901 529.01 520.868 534.173C510.836 539.336 499.595 541.695 488.333 541ZM507.667 497.667C513.387 498.155 519.142 497.294 524.469 495.152C529.795 493.009 534.544 489.646 538.333 485.333C546.005 472.959 549.726 458.541 549 444V438C550.294 422.015 546.814 406.005 539 392C535.106 387.01 529.996 383.103 524.16 380.651C518.324 378.2 511.956 377.287 505.667 378C500.033 377.953 494.479 379.335 489.525 382.016C484.57 384.698 480.375 388.591 477.333 393.333C469.808 407.205 466.342 422.916 467.333 438.667C466.259 453.998 469.738 469.305 477.333 482.667C480.59 487.647 485.121 491.664 490.455 494.302C495.789 496.94 501.732 498.102 507.667 497.667Z" fill="#794945"/>
    <path d="M633.333 166.667V633.333H166.667V166.667H633.333ZM633.333 100H166.667C148.986 100 132.029 107.024 119.526 119.526C107.024 132.029 100 148.986 100 166.667V633.333C100 651.014 107.024 667.971 119.526 680.474C132.029 692.976 148.986 700 166.667 700H633.333C651.014 700 667.971 692.976 680.474 680.474C692.976 667.971 700 651.014 700 633.333V166.667C700 148.986 692.976 132.029 680.474 119.526C667.971 107.024 651.014 100 633.333 100Z" fill="#794945"/>
  </g>
  <defs>
    <clipPath id="clip0_232_545">
      <rect width="800" height="800" fill="white"/>
    </clipPath>
  </defs>
</svg>
